<svg xmlns="http://www.w3.org/2000/svg" xmlns:xlink="http://www.w3.org/1999/xlink" width="512" zoomAndPan="magnify" viewBox="0 0 384 383.999986" height="512" preserveAspectRatio="xMidYMid meet" version="1.0"><defs><clipPath id="30edab778b"><path d="M 35.820312 38.398438 L 182 38.398438 L 182 184 L 35.820312 184 Z M 35.820312 38.398438 " clip-rule="nonzero"/></clipPath><clipPath id="e388acd4ed"><path d="M 200 38.398438 L 345.570312 38.398438 L 345.570312 184 L 200 184 Z M 200 38.398438 " clip-rule="nonzero"/></clipPath><clipPath id="bb99f3549d"><path d="M 35.820312 202 L 182 202 L 182 348.148438 L 35.820312 348.148438 Z M 35.820312 202 " clip-rule="nonzero"/></clipPath><clipPath id="4aa79f9157"><path d="M 200 202 L 345.570312 202 L 345.570312 348.148438 L 200 348.148438 Z M 200 202 " clip-rule="nonzero"/></clipPath></defs><g clip-path="url(#30edab778b)"><path fill="#f5f4e6" d="M 74.539062 38.398438 L 142.304688 38.398438 C 143.570312 38.398438 144.835938 38.460938 146.097656 38.585938 C 147.359375 38.710938 148.613281 38.898438 149.859375 39.144531 C 151.101562 39.390625 152.332031 39.699219 153.542969 40.066406 C 154.757812 40.433594 155.949219 40.863281 157.121094 41.347656 C 158.292969 41.832031 159.4375 42.375 160.558594 42.972656 C 161.675781 43.570312 162.761719 44.222656 163.816406 44.925781 C 164.871094 45.628906 165.886719 46.386719 166.867188 47.1875 C 167.847656 47.992188 168.789062 48.84375 169.683594 49.742188 C 170.582031 50.636719 171.429688 51.578125 172.234375 52.558594 C 173.039062 53.539062 173.796875 54.554688 174.5 55.609375 C 175.203125 56.664062 175.855469 57.75 176.453125 58.867188 C 177.050781 59.988281 177.59375 61.132812 178.078125 62.304688 C 178.5625 63.476562 178.988281 64.667969 179.359375 65.882812 C 179.726562 67.09375 180.035156 68.324219 180.28125 69.566406 C 180.527344 70.8125 180.714844 72.0625 180.839844 73.328125 C 180.964844 74.589844 181.023438 75.851562 181.023438 77.121094 L 181.023438 144.882812 C 181.023438 146.152344 180.964844 147.417969 180.839844 148.679688 C 180.714844 149.941406 180.527344 151.195312 180.28125 152.4375 C 180.035156 153.683594 179.726562 154.910156 179.359375 156.125 C 178.988281 157.339844 178.5625 158.53125 178.078125 159.703125 C 177.59375 160.875 177.050781 162.019531 176.453125 163.136719 C 175.855469 164.257812 175.203125 165.34375 174.5 166.398438 C 173.796875 167.453125 173.039062 168.46875 172.234375 169.449219 C 171.429688 170.429688 170.582031 171.367188 169.683594 172.265625 C 168.789062 173.160156 167.847656 174.011719 166.867188 174.816406 C 165.886719 175.621094 164.871094 176.375 163.816406 177.082031 C 162.761719 177.785156 161.675781 178.4375 160.558594 179.035156 C 159.4375 179.632812 158.292969 180.171875 157.121094 180.660156 C 155.949219 181.144531 154.757812 181.570312 153.542969 181.9375 C 152.332031 182.308594 151.101562 182.613281 149.859375 182.863281 C 148.613281 183.109375 147.359375 183.296875 146.097656 183.417969 C 144.835938 183.542969 143.570312 183.605469 142.304688 183.605469 L 74.539062 183.605469 C 73.273438 183.605469 72.007812 183.542969 70.746094 183.417969 C 69.484375 183.296875 68.230469 183.109375 66.988281 182.863281 C 65.742188 182.613281 64.515625 182.308594 63.300781 181.9375 C 62.085938 181.570312 60.894531 181.144531 59.722656 180.660156 C 58.550781 180.171875 57.40625 179.632812 56.289062 179.035156 C 55.167969 178.4375 54.082031 177.785156 53.027344 177.082031 C 51.972656 176.375 50.957031 175.621094 49.976562 174.816406 C 48.996094 174.011719 48.058594 173.160156 47.160156 172.265625 C 46.261719 171.367188 45.414062 170.429688 44.609375 169.449219 C 43.804688 168.46875 43.050781 167.453125 42.34375 166.398438 C 41.640625 165.34375 40.988281 164.257812 40.390625 163.136719 C 39.792969 162.019531 39.25 160.875 38.765625 159.703125 C 38.28125 158.53125 37.855469 157.339844 37.488281 156.125 C 37.117188 154.910156 36.808594 153.683594 36.5625 152.4375 C 36.316406 151.195312 36.128906 149.941406 36.003906 148.679688 C 35.882812 147.417969 35.820312 146.152344 35.820312 144.882812 L 35.820312 77.121094 C 35.820312 75.851562 35.882812 74.589844 36.003906 73.328125 C 36.128906 72.0625 36.316406 70.8125 36.5625 69.566406 C 36.808594 68.324219 37.117188 67.09375 37.488281 65.882812 C 37.855469 64.667969 38.28125 63.476562 38.765625 62.304688 C 39.25 61.132812 39.792969 59.988281 40.390625 58.867188 C 40.988281 57.75 41.640625 56.664062 42.34375 55.609375 C 43.050781 54.554688 43.804688 53.539062 44.609375 52.558594 C 45.414062 51.578125 46.261719 50.636719 47.160156 49.742188 C 48.058594 48.84375 48.996094 47.992188 49.976562 47.1875 C 50.957031 46.386719 51.972656 45.628906 53.027344 44.925781 C 54.082031 44.222656 55.167969 43.570312 56.289062 42.972656 C 57.40625 42.375 58.550781 41.832031 59.722656 41.347656 C 60.894531 40.863281 62.085938 40.433594 63.300781 40.066406 C 64.515625 39.699219 65.742188 39.390625 66.988281 39.144531 C 68.230469 38.898438 69.484375 38.710938 70.746094 38.585938 C 72.007812 38.460938 73.273438 38.398438 74.539062 38.398438 Z M 74.539062 38.398438 " fill-opacity="1" fill-rule="nonzero"/></g><g clip-path="url(#e388acd4ed)"><path fill="#f5f4e6" d="M 239.109375 38.398438 L 306.871094 38.398438 C 308.140625 38.398438 309.402344 38.460938 310.667969 38.585938 C 311.929688 38.710938 313.179688 38.898438 314.425781 39.144531 C 315.667969 39.390625 316.898438 39.699219 318.109375 40.066406 C 319.324219 40.433594 320.515625 40.863281 321.6875 41.347656 C 322.859375 41.832031 324.003906 42.375 325.125 42.972656 C 326.242188 43.570312 327.328125 44.222656 328.382812 44.925781 C 329.4375 45.628906 330.457031 46.386719 331.4375 47.1875 C 332.414062 47.992188 333.355469 48.84375 334.25 49.742188 C 335.148438 50.636719 336 51.578125 336.804688 52.558594 C 337.609375 53.539062 338.363281 54.554688 339.066406 55.609375 C 339.769531 56.664062 340.421875 57.75 341.019531 58.867188 C 341.617188 59.988281 342.160156 61.132812 342.644531 62.304688 C 343.128906 63.476562 343.558594 64.667969 343.925781 65.882812 C 344.292969 67.09375 344.601562 68.324219 344.847656 69.566406 C 345.097656 70.8125 345.28125 72.0625 345.40625 73.328125 C 345.53125 74.589844 345.59375 75.851562 345.59375 77.121094 L 345.59375 144.882812 C 345.59375 146.152344 345.53125 147.417969 345.40625 148.679688 C 345.28125 149.941406 345.097656 151.195312 344.847656 152.4375 C 344.601562 153.683594 344.292969 154.910156 343.925781 156.125 C 343.558594 157.339844 343.128906 158.53125 342.644531 159.703125 C 342.160156 160.875 341.617188 162.019531 341.019531 163.136719 C 340.421875 164.257812 339.769531 165.34375 339.066406 166.398438 C 338.363281 167.453125 337.609375 168.46875 336.804688 169.449219 C 336 170.429688 335.148438 171.367188 334.25 172.265625 C 333.355469 173.160156 332.414062 174.011719 331.433594 174.816406 C 330.457031 175.621094 329.4375 176.375 328.382812 177.082031 C 327.328125 177.785156 326.242188 178.4375 325.125 179.035156 C 324.003906 179.632812 322.859375 180.171875 321.6875 180.660156 C 320.515625 181.144531 319.324219 181.570312 318.109375 181.9375 C 316.898438 182.308594 315.667969 182.613281 314.425781 182.863281 C 313.179688 183.109375 311.929688 183.296875 310.667969 183.417969 C 309.402344 183.542969 308.140625 183.605469 306.871094 183.605469 L 239.109375 183.605469 C 237.839844 183.605469 236.574219 183.542969 235.3125 183.417969 C 234.050781 183.296875 232.796875 183.109375 231.554688 182.863281 C 230.308594 182.613281 229.082031 182.308594 227.867188 181.9375 C 226.652344 181.570312 225.460938 181.144531 224.289062 180.660156 C 223.117188 180.171875 221.972656 179.632812 220.855469 179.035156 C 219.734375 178.4375 218.648438 177.785156 217.59375 177.082031 C 216.539062 176.375 215.523438 175.621094 214.542969 174.816406 C 213.5625 174.011719 212.625 173.160156 211.726562 172.265625 C 210.832031 171.367188 209.980469 170.429688 209.175781 169.449219 C 208.371094 168.46875 207.617188 167.453125 206.910156 166.398438 C 206.207031 165.34375 205.554688 164.257812 204.957031 163.136719 C 204.359375 162.019531 203.820312 160.875 203.332031 159.703125 C 202.847656 158.53125 202.421875 157.339844 202.054688 156.125 C 201.683594 154.910156 201.378906 153.683594 201.128906 152.4375 C 200.882812 151.195312 200.695312 149.941406 200.574219 148.679688 C 200.449219 147.417969 200.386719 146.152344 200.386719 144.882812 L 200.386719 77.121094 C 200.386719 75.851562 200.449219 74.589844 200.574219 73.328125 C 200.695312 72.0625 200.882812 70.8125 201.128906 69.566406 C 201.378906 68.324219 201.683594 67.09375 202.054688 65.882812 C 202.421875 64.667969 202.847656 63.476562 203.332031 62.304688 C 203.820312 61.132812 204.359375 59.988281 204.957031 58.867188 C 205.554688 57.75 206.207031 56.664062 206.910156 55.609375 C 207.617188 54.554688 208.371094 53.539062 209.175781 52.558594 C 209.980469 51.578125 210.832031 50.636719 211.726562 49.742188 C 212.625 48.84375 213.5625 47.992188 214.542969 47.1875 C 215.523438 46.386719 216.539062 45.628906 217.59375 44.925781 C 218.648438 44.222656 219.734375 43.570312 220.855469 42.972656 C 221.972656 42.375 223.117188 41.832031 224.289062 41.347656 C 225.460938 40.863281 226.652344 40.433594 227.867188 40.066406 C 229.082031 39.699219 230.308594 39.390625 231.554688 39.144531 C 232.796875 38.898438 234.050781 38.710938 235.3125 38.585938 C 236.574219 38.460938 237.839844 38.398438 239.109375 38.398438 Z M 239.109375 38.398438 " fill-opacity="1" fill-rule="nonzero"/></g><g clip-path="url(#bb99f3549d)"><path fill="#f5f4e6" d="M 74.539062 202.96875 L 142.304688 202.96875 C 143.570312 202.96875 144.835938 203.027344 146.097656 203.152344 C 147.359375 203.277344 148.613281 203.464844 149.859375 203.710938 C 151.101562 203.957031 152.332031 204.265625 153.542969 204.632812 C 154.757812 205.003906 155.949219 205.429688 157.121094 205.914062 C 158.292969 206.398438 159.4375 206.941406 160.558594 207.539062 C 161.675781 208.136719 162.761719 208.789062 163.816406 209.492188 C 164.871094 210.199219 165.886719 210.953125 166.867188 211.757812 C 167.847656 212.5625 168.789062 213.410156 169.683594 214.308594 C 170.582031 215.207031 171.429688 216.144531 172.234375 217.125 C 173.039062 218.105469 173.796875 219.121094 174.5 220.175781 C 175.203125 221.230469 175.855469 222.316406 176.453125 223.433594 C 177.050781 224.554688 177.59375 225.699219 178.078125 226.871094 C 178.5625 228.042969 178.988281 229.234375 179.359375 230.449219 C 179.726562 231.660156 180.035156 232.890625 180.28125 234.132812 C 180.527344 235.378906 180.714844 236.632812 180.839844 237.894531 C 180.964844 239.15625 181.023438 240.421875 181.023438 241.6875 L 181.023438 309.453125 C 181.023438 310.71875 180.964844 311.984375 180.839844 313.246094 C 180.714844 314.507812 180.527344 315.761719 180.28125 317.007812 C 180.035156 318.25 179.726562 319.476562 179.359375 320.691406 C 178.988281 321.90625 178.5625 323.097656 178.078125 324.269531 C 177.59375 325.441406 177.050781 326.585938 176.453125 327.703125 C 175.855469 328.824219 175.203125 329.910156 174.5 330.964844 C 173.796875 332.019531 173.039062 333.035156 172.234375 334.015625 C 171.429688 334.996094 170.582031 335.933594 169.683594 336.832031 C 168.789062 337.730469 167.847656 338.578125 166.867188 339.382812 C 165.886719 340.1875 164.871094 340.941406 163.816406 341.648438 C 162.761719 342.351562 161.675781 343.003906 160.558594 343.601562 C 159.4375 344.199219 158.292969 344.742188 157.121094 345.226562 C 155.949219 345.710938 154.757812 346.136719 153.542969 346.507812 C 152.332031 346.875 151.101562 347.183594 149.859375 347.429688 C 148.613281 347.675781 147.359375 347.863281 146.097656 347.988281 C 144.835938 348.109375 143.570312 348.171875 142.304688 348.171875 L 74.539062 348.171875 C 73.273438 348.171875 72.007812 348.109375 70.746094 347.988281 C 69.484375 347.863281 68.230469 347.675781 66.988281 347.429688 C 65.742188 347.183594 64.515625 346.875 63.300781 346.507812 C 62.085938 346.136719 60.894531 345.710938 59.722656 345.226562 C 58.550781 344.742188 57.40625 344.199219 56.289062 343.601562 C 55.167969 343.003906 54.082031 342.351562 53.027344 341.648438 C 51.972656 340.941406 50.957031 340.1875 49.976562 339.382812 C 48.996094 338.578125 48.058594 337.730469 47.160156 336.832031 C 46.261719 335.933594 45.414062 334.996094 44.609375 334.015625 C 43.804688 333.035156 43.050781 332.019531 42.34375 330.964844 C 41.640625 329.910156 40.988281 328.824219 40.390625 327.703125 C 39.792969 326.585938 39.25 325.441406 38.765625 324.269531 C 38.28125 323.097656 37.855469 321.90625 37.488281 320.691406 C 37.117188 319.476562 36.808594 318.25 36.5625 317.007812 C 36.316406 315.761719 36.128906 314.507812 36.003906 313.246094 C 35.882812 311.984375 35.820312 310.71875 35.820312 309.453125 L 35.820312 241.6875 C 35.820312 240.421875 35.882812 239.15625 36.003906 237.894531 C 36.128906 236.632812 36.316406 235.378906 36.5625 234.132812 C 36.808594 232.890625 37.117188 231.660156 37.488281 230.449219 C 37.855469 229.234375 38.28125 228.042969 38.765625 226.871094 C 39.25 225.699219 39.792969 224.554688 40.390625 223.433594 C 40.988281 222.316406 41.640625 221.230469 42.34375 220.175781 C 43.050781 219.121094 43.804688 218.105469 44.609375 217.125 C 45.414062 216.144531 46.261719 215.207031 47.160156 214.308594 C 48.058594 213.410156 48.996094 212.5625 49.976562 211.757812 C 50.957031 210.953125 51.972656 210.199219 53.027344 209.492188 C 54.082031 208.789062 55.167969 208.136719 56.289062 207.539062 C 57.40625 206.941406 58.550781 206.398438 59.722656 205.914062 C 60.894531 205.429688 62.085938 205.003906 63.300781 204.632812 C 64.515625 204.265625 65.742188 203.957031 66.988281 203.710938 C 68.230469 203.464844 69.484375 203.277344 70.746094 203.152344 C 72.007812 203.027344 73.273438 202.96875 74.539062 202.96875 Z M 74.539062 202.96875 " fill-opacity="1" fill-rule="nonzero"/></g><g clip-path="url(#4aa79f9157)"><path fill="#f5f4e6" d="M 239.109375 202.96875 L 306.871094 202.96875 C 308.140625 202.96875 309.402344 203.027344 310.667969 203.152344 C 311.929688 203.277344 313.179688 203.464844 314.425781 203.710938 C 315.667969 203.957031 316.898438 204.265625 318.109375 204.632812 C 319.324219 205.003906 320.515625 205.429688 321.6875 205.914062 C 322.859375 206.398438 324.003906 206.941406 325.125 207.539062 C 326.242188 208.136719 327.328125 208.789062 328.382812 209.492188 C 329.4375 210.199219 330.457031 210.953125 331.4375 211.757812 C 332.414062 212.5625 333.355469 213.410156 334.25 214.308594 C 335.148438 215.207031 336 216.144531 336.804688 217.125 C 337.609375 218.105469 338.363281 219.121094 339.066406 220.175781 C 339.769531 221.230469 340.421875 222.316406 341.019531 223.433594 C 341.617188 224.554688 342.160156 225.699219 342.644531 226.871094 C 343.128906 228.042969 343.558594 229.234375 343.925781 230.449219 C 344.292969 231.660156 344.601562 232.890625 344.847656 234.132812 C 345.097656 235.378906 345.28125 236.632812 345.40625 237.894531 C 345.53125 239.15625 345.59375 240.421875 345.59375 241.6875 L 345.59375 309.453125 C 345.59375 310.71875 345.53125 311.984375 345.40625 313.246094 C 345.28125 314.507812 345.097656 315.761719 344.847656 317.007812 C 344.601562 318.25 344.292969 319.476562 343.925781 320.691406 C 343.558594 321.90625 343.128906 323.097656 342.644531 324.269531 C 342.160156 325.441406 341.617188 326.585938 341.019531 327.703125 C 340.421875 328.824219 339.769531 329.910156 339.066406 330.964844 C 338.363281 332.019531 337.609375 333.035156 336.804688 334.015625 C 336 334.996094 335.148438 335.933594 334.25 336.832031 C 333.355469 337.730469 332.414062 338.578125 331.433594 339.382812 C 330.457031 340.1875 329.4375 340.941406 328.382812 341.648438 C 327.328125 342.351562 326.242188 343.003906 325.125 343.601562 C 324.003906 344.199219 322.859375 344.742188 321.6875 345.226562 C 320.515625 345.710938 319.324219 346.136719 318.109375 346.507812 C 316.898438 346.875 315.667969 347.183594 314.425781 347.429688 C 313.179688 347.675781 311.929688 347.863281 310.667969 347.988281 C 309.402344 348.109375 308.140625 348.171875 306.871094 348.171875 L 239.109375 348.171875 C 237.839844 348.171875 236.574219 348.109375 235.3125 347.988281 C 234.050781 347.863281 232.796875 347.675781 231.554688 347.429688 C 230.308594 347.183594 229.082031 346.875 227.867188 346.507812 C 226.652344 346.136719 225.460938 345.710938 224.289062 345.226562 C 223.117188 344.742188 221.972656 344.199219 220.855469 343.601562 C 219.734375 343.003906 218.648438 342.351562 217.59375 341.648438 C 216.539062 340.941406 215.523438 340.1875 214.542969 339.382812 C 213.5625 338.578125 212.625 337.730469 211.726562 336.832031 C 210.832031 335.933594 209.980469 334.996094 209.175781 334.015625 C 208.371094 333.035156 207.617188 332.019531 206.910156 330.964844 C 206.207031 329.910156 205.554688 328.824219 204.957031 327.703125 C 204.359375 326.585938 203.820312 325.441406 203.332031 324.269531 C 202.847656 323.097656 202.421875 321.90625 202.054688 320.691406 C 201.683594 319.476562 201.378906 318.25 201.128906 317.007812 C 200.882812 315.761719 200.695312 314.507812 200.574219 313.246094 C 200.449219 311.984375 200.386719 310.71875 200.386719 309.453125 L 200.386719 241.6875 C 200.386719 240.421875 200.449219 239.15625 200.574219 237.894531 C 200.695312 236.632812 200.882812 235.378906 201.128906 234.132812 C 201.378906 232.890625 201.683594 231.660156 202.054688 230.449219 C 202.421875 229.234375 202.847656 228.042969 203.332031 226.871094 C 203.820312 225.699219 204.359375 224.554688 204.957031 223.433594 C 205.554688 222.316406 206.207031 221.230469 206.910156 220.175781 C 207.617188 219.121094 208.371094 218.105469 209.175781 217.125 C 209.980469 216.144531 210.832031 215.207031 211.726562 214.308594 C 212.625 213.410156 213.5625 212.5625 214.542969 211.757812 C 215.523438 210.953125 216.539062 210.199219 217.59375 209.492188 C 218.648438 208.789062 219.734375 208.136719 220.855469 207.539062 C 221.972656 206.941406 223.117188 206.398438 224.289062 205.914062 C 225.460938 205.429688 226.652344 205.003906 227.867188 204.632812 C 229.082031 204.265625 230.308594 203.957031 231.554688 203.710938 C 232.796875 203.464844 234.050781 203.277344 235.3125 203.152344 C 236.574219 203.027344 237.839844 202.96875 239.109375 202.96875 Z M 239.109375 202.96875 " fill-opacity="1" fill-rule="nonzero"/></g></svg>