<svg xmlns="http://www.w3.org/2000/svg" xmlns:xlink="http://www.w3.org/1999/xlink" width="512" zoomAndPan="magnify" viewBox="0 0 384 383.999986" height="512" preserveAspectRatio="xMidYMid meet" version="1.0"><defs><clipPath id="abee6415f6"><path d="M 26.925781 31.160156 L 341.175781 31.160156 L 341.175781 345.410156 L 26.925781 345.410156 Z M 26.925781 31.160156 " clip-rule="nonzero"/></clipPath></defs><g clip-path="url(#abee6415f6)"><path fill="#f5f4e6" d="M 72.546875 77.484375 C 103.429688 46.601562 140.628906 31.160156 184.144531 31.160156 C 227.660156 31.160156 264.742188 46.484375 295.390625 77.132812 C 326.039062 107.78125 341.363281 144.863281 341.363281 188.378906 C 341.363281 231.898438 326.039062 268.976562 295.390625 299.625 C 264.742188 330.273438 227.660156 345.597656 184.144531 345.597656 C 140.628906 345.597656 103.546875 330.273438 72.898438 299.625 C 42.25 268.976562 26.925781 231.898438 26.925781 188.378906 C 26.925781 144.863281 42.132812 107.898438 72.546875 77.484375 Z M 198.179688 260.671875 C 198.648438 254.589844 196.894531 249.441406 192.917969 245.230469 C 188.941406 241.019531 183.910156 238.914062 177.828125 238.914062 C 172.210938 238.914062 167.296875 240.785156 163.085938 244.53125 C 158.875 248.273438 156.769531 253.1875 156.769531 259.269531 C 156.769531 265.351562 158.640625 270.382812 162.386719 274.359375 C 166.128906 278.335938 170.808594 280.324219 176.421875 280.324219 C 182.507812 280.324219 187.652344 278.570312 191.863281 275.0625 C 196.074219 271.550781 198.179688 266.757812 198.179688 260.671875 Z M 232.574219 170.832031 C 238.1875 162.878906 240.996094 154.457031 240.996094 145.566406 C 240.996094 130.125 235.144531 117.960938 223.449219 109.070312 C 212.21875 100.648438 197.714844 96.4375 179.933594 96.4375 C 166.832031 96.4375 155.835938 99.476562 146.945312 105.558594 C 133.84375 114.449219 127.292969 130.359375 127.292969 153.285156 L 161.683594 153.285156 C 161.683594 143.460938 162.621094 137.144531 164.492188 134.335938 C 168.703125 127.316406 174.785156 123.808594 182.738281 123.808594 C 190.695312 123.808594 196.542969 126.382812 200.285156 131.527344 C 204.03125 136.675781 205.902344 142.058594 205.902344 147.671875 C 205.902344 151.414062 204.03125 156.09375 200.285156 161.710938 C 199.351562 163.582031 197.011719 165.921875 193.269531 168.726562 C 181.101562 175.746094 172.914062 182.765625 168.703125 189.785156 C 164.960938 195.867188 162.621094 205.460938 161.683594 218.5625 C 161.683594 220.433594 162.621094 221.367188 164.492188 221.367188 L 191.863281 221.367188 C 194.203125 221.367188 195.375 220.433594 195.375 218.5625 C 195.375 213.414062 195.839844 208.96875 196.777344 205.226562 C 198.179688 201.015625 200.988281 197.035156 205.199219 193.292969 L 215.027344 186.976562 C 223.917969 180.425781 229.765625 175.046875 232.574219 170.832031 Z M 232.574219 170.832031 " fill-opacity="1" fill-rule="nonzero"/></g></svg>