<svg xmlns="http://www.w3.org/2000/svg" xmlns:xlink="http://www.w3.org/1999/xlink" width="512" zoomAndPan="magnify" viewBox="0 0 384 383.999986" height="512" preserveAspectRatio="xMidYMid meet" version="1.0"><defs><clipPath id="a06cd0857f"><path d="M 61 27.695312 L 341 27.695312 L 341 356.195312 L 61 356.195312 Z M 61 27.695312 " clip-rule="nonzero"/></clipPath></defs><g clip-path="url(#a06cd0857f)"><path fill="#f5f4e6" d="M 96.503906 356.300781 L 249.074219 356.300781 C 250.609375 356.300781 252.144531 356.226562 253.675781 356.074219 C 255.203125 355.921875 256.722656 355.699219 258.230469 355.398438 C 259.738281 355.097656 261.226562 354.726562 262.699219 354.277344 C 264.171875 353.832031 265.617188 353.316406 267.035156 352.726562 C 268.457031 352.136719 269.84375 351.480469 271.203125 350.757812 C 272.558594 350.03125 273.875 349.242188 275.152344 348.390625 C 276.429688 347.535156 277.664062 346.621094 278.851562 345.644531 C 280.042969 344.667969 281.179688 343.636719 282.265625 342.550781 C 283.355469 341.464844 284.386719 340.324219 285.359375 339.136719 C 286.335938 337.949219 287.25 336.714844 288.105469 335.4375 C 288.957031 334.160156 289.75 332.839844 290.472656 331.484375 C 291.199219 330.128906 291.855469 328.742188 292.441406 327.320312 C 293.03125 325.902344 293.546875 324.453125 293.996094 322.984375 C 294.441406 321.511719 294.8125 320.023438 295.113281 318.515625 C 295.414062 317.007812 295.640625 315.488281 295.789062 313.957031 C 295.941406 312.429688 296.015625 310.894531 296.015625 309.355469 L 296.015625 250.324219 L 284.28125 257.074219 C 280.621094 259.1875 276.710938 260.59375 272.542969 261.296875 L 272.542969 309.355469 C 272.542969 310.125 272.507812 310.890625 272.429688 311.65625 C 272.355469 312.421875 272.242188 313.183594 272.09375 313.9375 C 271.945312 314.691406 271.757812 315.433594 271.535156 316.171875 C 271.308594 316.90625 271.050781 317.628906 270.757812 318.339844 C 270.464844 319.050781 270.136719 319.742188 269.773438 320.421875 C 269.410156 321.097656 269.015625 321.757812 268.589844 322.398438 C 268.160156 323.035156 267.703125 323.652344 267.214844 324.246094 C 266.730469 324.839844 266.214844 325.410156 265.667969 325.953125 C 265.125 326.496094 264.558594 327.011719 263.960938 327.5 C 263.367188 327.988281 262.753906 328.445312 262.113281 328.871094 C 261.472656 329.300781 260.816406 329.695312 260.136719 330.058594 C 259.460938 330.417969 258.765625 330.746094 258.054688 331.042969 C 257.34375 331.335938 256.621094 331.59375 255.886719 331.816406 C 255.152344 332.039062 254.40625 332.226562 253.652344 332.378906 C 252.898438 332.527344 252.136719 332.640625 251.375 332.714844 C 250.609375 332.789062 249.839844 332.828125 249.074219 332.828125 L 196.261719 332.828125 L 196.261719 203.734375 L 254.941406 203.734375 L 254.941406 226.617188 C 254.941406 227.132812 254.976562 227.640625 255.042969 228.148438 C 255.109375 228.65625 255.210938 229.160156 255.34375 229.652344 C 255.476562 230.148438 255.640625 230.632812 255.835938 231.105469 C 256.035156 231.578125 256.261719 232.039062 256.515625 232.480469 C 256.773438 232.925781 257.058594 233.351562 257.371094 233.757812 C 257.683594 234.164062 258.019531 234.546875 258.382812 234.910156 C 258.746094 235.273438 259.128906 235.609375 259.539062 235.921875 C 259.945312 236.234375 260.371094 236.515625 260.8125 236.773438 C 261.257812 237.027344 261.714844 237.253906 262.191406 237.449219 C 262.664062 237.648438 263.148438 237.8125 263.644531 237.945312 C 264.136719 238.074219 264.640625 238.175781 265.148438 238.242188 C 265.65625 238.308594 266.167969 238.34375 266.679688 238.34375 C 267.191406 238.34375 267.703125 238.308594 268.210938 238.242188 C 268.71875 238.175781 269.21875 238.074219 269.714844 237.941406 C 270.210938 237.808594 270.695312 237.644531 271.167969 237.449219 C 271.640625 237.253906 272.101562 237.027344 272.542969 236.769531 L 334.628906 200.917969 C 335.070312 200.660156 335.496094 200.375 335.898438 200.0625 C 336.304688 199.75 336.6875 199.414062 337.050781 199.050781 C 337.410156 198.6875 337.746094 198.304688 338.058594 197.898438 C 338.371094 197.492188 338.652344 197.066406 338.90625 196.621094 C 339.164062 196.179688 339.390625 195.722656 339.585938 195.25 C 339.78125 194.773438 339.945312 194.292969 340.074219 193.796875 C 340.207031 193.300781 340.308594 192.800781 340.375 192.292969 C 340.441406 191.785156 340.472656 191.277344 340.472656 190.765625 C 340.472656 190.253906 340.441406 189.742188 340.375 189.238281 C 340.308594 188.730469 340.207031 188.226562 340.074219 187.734375 C 339.945312 187.238281 339.78125 186.753906 339.585938 186.28125 C 339.390625 185.808594 339.164062 185.351562 338.90625 184.90625 C 338.652344 184.464844 338.371094 184.039062 338.058594 183.632812 C 337.746094 183.226562 337.410156 182.84375 337.050781 182.480469 C 336.6875 182.117188 336.304688 181.78125 335.898438 181.46875 C 335.496094 181.15625 335.070312 180.871094 334.628906 180.613281 L 272.542969 145.054688 C 272.101562 144.796875 271.640625 144.570312 271.167969 144.375 C 270.695312 144.179688 270.210938 144.015625 269.714844 143.882812 C 269.21875 143.75 268.71875 143.648438 268.210938 143.582031 C 267.703125 143.515625 267.191406 143.480469 266.679688 143.480469 C 266.167969 143.480469 265.65625 143.515625 265.148438 143.582031 C 264.640625 143.648438 264.136719 143.746094 263.644531 143.878906 C 263.148438 144.011719 262.664062 144.175781 262.191406 144.371094 C 261.714844 144.570312 261.257812 144.792969 260.8125 145.050781 C 260.371094 145.308594 259.945312 145.589844 259.539062 145.902344 C 259.128906 146.214844 258.746094 146.550781 258.382812 146.914062 C 258.019531 147.277344 257.683594 147.660156 257.371094 148.066406 C 257.058594 148.472656 256.773438 148.898438 256.515625 149.339844 C 256.261719 149.785156 256.035156 150.242188 255.835938 150.71875 C 255.640625 151.191406 255.476562 151.675781 255.34375 152.167969 C 255.210938 152.664062 255.109375 153.167969 255.042969 153.675781 C 254.976562 154.183594 254.941406 154.691406 254.941406 155.207031 L 254.941406 180.261719 L 196.261719 180.261719 L 196.261719 107.03125 C 196.261719 105.929688 196.1875 104.832031 196.03125 103.742188 C 195.878906 102.652344 195.648438 101.574219 195.34375 100.515625 C 195.039062 99.457031 194.664062 98.425781 194.214844 97.421875 C 193.761719 96.417969 193.246094 95.449219 192.660156 94.515625 C 192.074219 93.582031 191.425781 92.695312 190.710938 91.855469 C 190 91.011719 189.234375 90.226562 188.414062 89.492188 C 187.589844 88.761719 186.722656 88.085938 185.804688 87.476562 C 184.890625 86.867188 183.933594 86.324219 182.941406 85.847656 L 114.109375 52.808594 C 112.675781 52.171875 111.210938 51.621094 109.707031 51.167969 L 249.074219 51.167969 C 249.839844 51.167969 250.609375 51.203125 251.375 51.28125 C 252.136719 51.355469 252.898438 51.46875 253.652344 51.617188 C 254.40625 51.769531 255.152344 51.953125 255.886719 52.175781 C 256.621094 52.402344 257.34375 52.660156 258.054688 52.953125 C 258.765625 53.246094 259.460938 53.574219 260.136719 53.9375 C 260.816406 54.300781 261.472656 54.695312 262.113281 55.121094 C 262.75 55.550781 263.367188 56.007812 263.964844 56.496094 C 264.558594 56.980469 265.125 57.496094 265.667969 58.042969 C 266.214844 58.585938 266.730469 59.152344 267.214844 59.75 C 267.703125 60.34375 268.160156 60.960938 268.589844 61.597656 C 269.015625 62.238281 269.410156 62.894531 269.773438 63.574219 C 270.136719 64.25 270.464844 64.945312 270.757812 65.65625 C 271.050781 66.367188 271.308594 67.089844 271.535156 67.824219 C 271.757812 68.5625 271.945312 69.304688 272.09375 70.058594 C 272.242188 70.8125 272.355469 71.574219 272.429688 72.335938 C 272.507812 73.101562 272.542969 73.871094 272.542969 74.636719 L 272.542969 120.234375 C 276.710938 120.9375 280.621094 122.34375 284.28125 124.457031 L 296.015625 131.207031 L 296.015625 74.636719 C 296.015625 73.101562 295.941406 71.566406 295.789062 70.039062 C 295.640625 68.507812 295.414062 66.988281 295.113281 65.480469 C 294.8125 63.972656 294.441406 62.484375 293.996094 61.011719 C 293.546875 59.539062 293.03125 58.09375 292.441406 56.675781 C 291.855469 55.253906 291.199219 53.867188 290.472656 52.507812 C 289.75 51.152344 288.957031 49.835938 288.105469 48.558594 C 287.25 47.28125 286.335938 46.046875 285.359375 44.859375 C 284.386719 43.667969 283.355469 42.53125 282.265625 41.445312 C 281.179688 40.355469 280.042969 39.324219 278.851562 38.351562 C 277.664062 37.375 276.429688 36.460938 275.152344 35.605469 C 273.875 34.753906 272.558594 33.960938 271.203125 33.238281 C 269.847656 32.511719 268.457031 31.855469 267.035156 31.269531 C 265.617188 30.679688 264.171875 30.164062 262.699219 29.714844 C 261.226562 29.269531 259.738281 28.898438 258.230469 28.597656 C 256.722656 28.296875 255.203125 28.070312 253.671875 27.921875 C 252.144531 27.769531 250.609375 27.695312 249.074219 27.695312 L 108.242188 27.695312 C 106.703125 27.695312 105.171875 27.769531 103.640625 27.921875 C 102.109375 28.070312 100.589844 28.296875 99.082031 28.597656 C 97.574219 28.898438 96.085938 29.269531 94.613281 29.714844 C 93.144531 30.164062 91.699219 30.679688 90.277344 31.269531 C 88.855469 31.855469 87.46875 32.511719 86.113281 33.238281 C 84.757812 33.960938 83.441406 34.753906 82.160156 35.605469 C 80.882812 36.460938 79.648438 37.375 78.460938 38.351562 C 77.273438 39.324219 76.132812 40.355469 75.046875 41.445312 C 73.960938 42.53125 72.929688 43.667969 71.953125 44.859375 C 70.976562 46.046875 70.0625 47.28125 69.210938 48.558594 C 68.355469 49.835938 67.566406 51.152344 66.839844 52.507812 C 66.117188 53.867188 65.460938 55.253906 64.871094 56.675781 C 64.28125 58.09375 63.765625 59.539062 63.320312 61.011719 C 62.875 62.484375 62.5 63.972656 62.199219 65.480469 C 61.898438 66.988281 61.675781 68.507812 61.523438 70.039062 C 61.375 71.566406 61.296875 73.101562 61.296875 74.636719 L 61.296875 321.09375 C 61.296875 322.246094 61.355469 323.394531 61.46875 324.542969 C 61.582031 325.691406 61.75 326.832031 61.972656 327.960938 C 62.199219 329.09375 62.480469 330.210938 62.8125 331.3125 C 63.148438 332.417969 63.535156 333.5 63.976562 334.566406 C 64.417969 335.632812 64.910156 336.671875 65.457031 337.6875 C 66 338.707031 66.589844 339.695312 67.230469 340.652344 C 67.871094 341.613281 68.558594 342.535156 69.289062 343.429688 C 70.019531 344.320312 70.792969 345.171875 71.609375 345.988281 C 72.425781 346.804688 73.277344 347.578125 74.171875 348.308594 C 75.0625 349.039062 75.988281 349.726562 76.945312 350.367188 C 77.902344 351.007812 78.890625 351.597656 79.910156 352.144531 C 80.925781 352.6875 81.96875 353.179688 83.03125 353.621094 C 84.097656 354.0625 85.183594 354.449219 86.285156 354.785156 C 87.390625 355.117188 88.507812 355.398438 89.636719 355.625 C 90.769531 355.847656 91.90625 356.019531 93.054688 356.128906 C 94.203125 356.242188 95.351562 356.300781 96.503906 356.300781 Z M 96.503906 356.300781 " fill-opacity="1" fill-rule="nonzero"/></g></svg>