<svg xmlns="http://www.w3.org/2000/svg" xmlns:xlink="http://www.w3.org/1999/xlink" width="512" zoomAndPan="magnify" viewBox="0 0 384 383.999986" height="512" preserveAspectRatio="xMidYMid meet" version="1.0"><defs><clipPath id="8a4c207898"><path d="M 75.1875 47.507812 L 309 47.507812 L 309 345.257812 L 75.1875 345.257812 Z M 75.1875 47.507812 " clip-rule="nonzero"/></clipPath></defs><g clip-path="url(#8a4c207898)"><path fill="#f5f4e6" d="M 268.4375 345.59375 L 115.066406 345.59375 C 93.152344 345.59375 75.320312 327.761719 75.320312 305.847656 L 75.320312 87.257812 C 75.320312 65.34375 93.152344 47.515625 115.066406 47.515625 L 268.4375 47.515625 C 290.351562 47.515625 308.183594 65.34375 308.183594 87.257812 L 308.183594 305.847656 C 308.183594 327.761719 290.351562 345.59375 268.4375 345.59375 Z M 115.0625 67.386719 C 104.101562 67.386719 95.1875 76.300781 95.1875 87.257812 L 95.1875 305.847656 C 95.1875 316.808594 104.101562 325.722656 115.0625 325.722656 L 268.433594 325.722656 C 279.394531 325.722656 288.304688 316.808594 288.304688 305.847656 L 288.304688 87.257812 C 288.304688 76.300781 279.394531 67.386719 268.433594 67.386719 Z M 115.0625 67.386719 " fill-opacity="1" fill-rule="nonzero"/></g><path fill="#f5f4e6" d="M 245.585938 206.492188 L 137.910156 206.492188 C 132.425781 206.492188 127.972656 202.039062 127.972656 196.554688 C 127.972656 191.070312 132.425781 186.617188 137.910156 186.617188 L 245.585938 186.617188 C 251.070312 186.617188 255.519531 191.070312 255.519531 196.554688 C 255.519531 202.039062 251.070312 206.492188 245.585938 206.492188 Z M 245.585938 206.492188 " fill-opacity="1" fill-rule="nonzero"/><path fill="#f5f4e6" d="M 245.585938 125.042969 L 172.527344 125.042969 C 167.042969 125.042969 162.589844 120.589844 162.589844 115.105469 C 162.589844 109.621094 167.042969 105.171875 172.527344 105.171875 L 245.585938 105.171875 C 251.070312 105.171875 255.519531 109.621094 255.519531 115.105469 C 255.519531 120.589844 251.070312 125.042969 245.585938 125.042969 Z M 245.585938 125.042969 " fill-opacity="1" fill-rule="nonzero"/><path fill="#f5f4e6" d="M 245.585938 247.214844 L 137.910156 247.214844 C 132.425781 247.214844 127.972656 242.761719 127.972656 237.277344 C 127.972656 231.792969 132.425781 227.34375 137.910156 227.34375 L 245.585938 227.34375 C 251.070312 227.34375 255.519531 231.792969 255.519531 237.277344 C 255.519531 242.761719 251.070312 247.214844 245.585938 247.214844 Z M 245.585938 247.214844 " fill-opacity="1" fill-rule="nonzero"/><path fill="#f5f4e6" d="M 245.585938 287.9375 L 137.910156 287.9375 C 132.425781 287.9375 127.972656 283.488281 127.972656 278.003906 C 127.972656 272.515625 132.425781 268.066406 137.910156 268.066406 L 245.585938 268.066406 C 251.070312 268.066406 255.519531 272.515625 255.519531 278.003906 C 255.519531 283.488281 251.070312 287.9375 245.585938 287.9375 Z M 245.585938 287.9375 " fill-opacity="1" fill-rule="nonzero"/><path fill="#f5f4e6" d="M 147.851562 115.105469 C 147.851562 115.757812 147.789062 116.40625 147.660156 117.042969 C 147.53125 117.683594 147.34375 118.304688 147.09375 118.910156 C 146.84375 119.511719 146.539062 120.085938 146.175781 120.625 C 145.8125 121.167969 145.402344 121.671875 144.941406 122.132812 C 144.480469 122.59375 143.976562 123.003906 143.433594 123.367188 C 142.894531 123.730469 142.320312 124.035156 141.71875 124.285156 C 141.113281 124.535156 140.492188 124.722656 139.851562 124.851562 C 139.214844 124.980469 138.566406 125.042969 137.914062 125.042969 C 137.261719 125.042969 136.617188 124.980469 135.976562 124.851562 C 135.335938 124.722656 134.714844 124.535156 134.113281 124.285156 C 133.507812 124.035156 132.9375 123.730469 132.394531 123.367188 C 131.851562 123.003906 131.351562 122.59375 130.890625 122.132812 C 130.425781 121.671875 130.015625 121.167969 129.652344 120.625 C 129.289062 120.085938 128.984375 119.511719 128.734375 118.910156 C 128.484375 118.304688 128.296875 117.683594 128.167969 117.042969 C 128.042969 116.40625 127.976562 115.757812 127.976562 115.105469 C 127.976562 114.453125 128.042969 113.808594 128.167969 113.167969 C 128.296875 112.527344 128.484375 111.90625 128.734375 111.304688 C 128.984375 110.699219 129.289062 110.128906 129.652344 109.585938 C 130.015625 109.042969 130.425781 108.542969 130.890625 108.082031 C 131.351562 107.617188 131.851562 107.207031 132.394531 106.84375 C 132.9375 106.480469 133.507812 106.175781 134.113281 105.925781 C 134.714844 105.675781 135.335938 105.488281 135.976562 105.359375 C 136.617188 105.234375 137.261719 105.167969 137.914062 105.167969 C 138.566406 105.167969 139.214844 105.234375 139.851562 105.359375 C 140.492188 105.488281 141.113281 105.675781 141.71875 105.925781 C 142.320312 106.175781 142.894531 106.480469 143.433594 106.84375 C 143.976562 107.207031 144.480469 107.617188 144.941406 108.082031 C 145.402344 108.542969 145.8125 109.042969 146.175781 109.585938 C 146.539062 110.128906 146.84375 110.699219 147.09375 111.304688 C 147.34375 111.90625 147.53125 112.527344 147.660156 113.167969 C 147.789062 113.808594 147.851562 114.453125 147.851562 115.105469 Z M 147.851562 115.105469 " fill-opacity="1" fill-rule="nonzero"/><path fill="#f5f4e6" d="M 245.585938 165.765625 L 172.527344 165.765625 C 167.042969 165.765625 162.589844 161.316406 162.589844 155.832031 C 162.589844 150.34375 167.042969 145.894531 172.527344 145.894531 L 245.585938 145.894531 C 251.070312 145.894531 255.519531 150.34375 255.519531 155.832031 C 255.519531 161.316406 251.070312 165.765625 245.585938 165.765625 Z M 245.585938 165.765625 " fill-opacity="1" fill-rule="nonzero"/><path fill="#f5f4e6" d="M 147.851562 155.832031 C 147.851562 156.484375 147.789062 157.128906 147.660156 157.769531 C 147.53125 158.410156 147.34375 159.03125 147.09375 159.632812 C 146.84375 160.234375 146.539062 160.808594 146.175781 161.351562 C 145.8125 161.894531 145.402344 162.394531 144.941406 162.855469 C 144.480469 163.316406 143.976562 163.730469 143.433594 164.09375 C 142.894531 164.453125 142.320312 164.761719 141.71875 165.011719 C 141.113281 165.261719 140.492188 165.449219 139.851562 165.574219 C 139.214844 165.703125 138.566406 165.765625 137.914062 165.765625 C 137.261719 165.765625 136.617188 165.703125 135.976562 165.574219 C 135.335938 165.449219 134.714844 165.261719 134.113281 165.011719 C 133.507812 164.761719 132.9375 164.453125 132.394531 164.09375 C 131.851562 163.730469 131.351562 163.316406 130.890625 162.855469 C 130.425781 162.394531 130.015625 161.894531 129.652344 161.351562 C 129.289062 160.808594 128.984375 160.234375 128.734375 159.632812 C 128.484375 159.03125 128.296875 158.410156 128.167969 157.769531 C 128.042969 157.128906 127.976562 156.484375 127.976562 155.832031 C 127.976562 155.179688 128.042969 154.53125 128.167969 153.890625 C 128.296875 153.25 128.484375 152.628906 128.734375 152.027344 C 128.984375 151.425781 129.289062 150.851562 129.652344 150.308594 C 130.015625 149.765625 130.425781 149.265625 130.890625 148.804688 C 131.351562 148.34375 131.851562 147.929688 132.394531 147.570312 C 132.9375 147.207031 133.507812 146.898438 134.113281 146.648438 C 134.714844 146.402344 135.335938 146.210938 135.976562 146.085938 C 136.617188 145.957031 137.261719 145.894531 137.914062 145.894531 C 138.566406 145.894531 139.214844 145.957031 139.851562 146.085938 C 140.492188 146.210938 141.113281 146.402344 141.71875 146.648438 C 142.320312 146.898438 142.894531 147.207031 143.433594 147.570312 C 143.976562 147.929688 144.480469 148.34375 144.941406 148.804688 C 145.402344 149.265625 145.8125 149.765625 146.175781 150.308594 C 146.539062 150.851562 146.84375 151.425781 147.09375 152.027344 C 147.34375 152.628906 147.53125 153.25 147.660156 153.890625 C 147.789062 154.53125 147.851562 155.179688 147.851562 155.832031 Z M 147.851562 155.832031 " fill-opacity="1" fill-rule="nonzero"/></svg>