<svg xmlns="http://www.w3.org/2000/svg" xmlns:xlink="http://www.w3.org/1999/xlink" width="512" zoomAndPan="magnify" viewBox="0 0 384 383.999986" height="512" preserveAspectRatio="xMidYMid meet" version="1.0"><defs><clipPath id="32bc0bcaf7"><path d="M 28.21875 129 L 355.441406 129 L 355.441406 271 L 28.21875 271 Z M 28.21875 129 " clip-rule="nonzero"/></clipPath></defs><path fill="#f5f4e6" d="M 156.96875 118.925781 C 163.160156 127.953125 167.117188 139.792969 167.117188 150.515625 C 167.117188 153.355469 169.925781 156.160156 172.765625 156.160156 L 186.292969 156.160156 L 186.292969 118.351562 C 186.292969 114.96875 188.558594 112.703125 191.941406 112.703125 C 194.75 112.703125 197.589844 114.96875 197.589844 118.351562 L 197.589844 156.160156 L 210.546875 156.160156 C 213.960938 156.160156 216.191406 153.894531 216.191406 150.515625 C 216.191406 139.792969 220.148438 127.378906 226.371094 118.925781 C 244.972656 92.40625 230.871094 55.171875 201.546875 48.40625 C 184.027344 44.449219 167.117188 51.214844 156.96875 66.464844 C 146.25 82.261719 146.25 103.128906 156.96875 118.925781 " fill-opacity="1" fill-rule="nonzero"/><path fill="#f5f4e6" d="M 254.578125 98.054688 L 262.460938 98.054688 C 265.84375 98.054688 268.109375 95.789062 268.109375 92.40625 C 268.109375 89.027344 265.84375 86.761719 262.460938 86.761719 L 254.578125 86.761719 C 251.195312 86.761719 248.929688 89.027344 248.929688 92.40625 C 248.929688 95.214844 251.195312 98.054688 254.578125 98.054688 " fill-opacity="1" fill-rule="nonzero"/><path fill="#f5f4e6" d="M 239.902344 49.523438 L 245.550781 43.332031 C 247.8125 41.066406 247.8125 37.683594 245.550781 35.417969 C 243.285156 33.152344 239.902344 33.152344 237.636719 35.417969 L 231.988281 41.640625 C 229.753906 43.875 229.753906 47.257812 231.988281 49.523438 C 234.253906 51.789062 238.210938 51.789062 239.902344 49.523438 " fill-opacity="1" fill-rule="nonzero"/><path fill="#f5f4e6" d="M 191.941406 32.035156 C 195.324219 32.035156 197.589844 29.769531 197.589844 26.390625 L 197.589844 17.933594 C 197.589844 14.550781 195.324219 12.285156 191.941406 12.285156 C 188.558594 12.285156 186.292969 14.550781 186.292969 17.933594 L 186.292969 26.390625 C 186.292969 29.230469 188.558594 32.035156 191.941406 32.035156 " fill-opacity="1" fill-rule="nonzero"/><path fill="#f5f4e6" d="M 143.410156 49.523438 C 145.675781 51.789062 149.058594 51.789062 151.324219 49.523438 C 153.585938 47.257812 153.585938 43.875 151.324219 41.640625 L 145.675781 35.417969 C 143.410156 33.152344 140.027344 33.152344 137.792969 35.417969 C 135.527344 37.683594 135.527344 41.066406 137.792969 43.332031 L 143.410156 49.523438 " fill-opacity="1" fill-rule="nonzero"/><path fill="#f5f4e6" d="M 120.847656 98.054688 L 128.761719 98.054688 C 132.144531 98.054688 134.378906 95.789062 134.378906 92.40625 C 134.378906 89.027344 132.144531 86.761719 128.761719 86.761719 L 120.847656 86.761719 C 117.46875 86.761719 115.203125 89.027344 115.203125 92.40625 C 115.203125 95.214844 118.042969 98.054688 120.847656 98.054688 " fill-opacity="1" fill-rule="nonzero"/><path fill="#f5f4e6" d="M 145.675781 148.824219 L 151.324219 142.632812 C 153.585938 140.367188 153.585938 136.984375 151.324219 134.71875 C 149.058594 132.484375 145.675781 132.484375 143.410156 134.71875 L 137.792969 140.941406 C 135.527344 143.207031 135.527344 146.589844 137.792969 148.824219 C 140.027344 151.089844 143.410156 151.089844 145.675781 148.824219 " fill-opacity="1" fill-rule="nonzero"/><path fill="#f5f4e6" d="M 239.902344 134.71875 C 237.636719 132.453125 234.253906 132.453125 231.988281 134.71875 C 229.753906 136.984375 229.753906 140.367188 231.988281 142.632812 L 237.636719 148.824219 C 239.902344 151.089844 243.285156 151.089844 245.550781 148.824219 C 247.8125 146.558594 247.8125 143.175781 245.550781 140.910156 L 239.902344 134.71875 " fill-opacity="1" fill-rule="nonzero"/><path fill="#f5f4e6" d="M 181.796875 165.765625 C 178.414062 165.765625 176.148438 168 176.148438 171.382812 C 176.148438 174.796875 178.414062 177.03125 181.796875 177.03125 L 201.546875 177.03125 C 204.929688 177.03125 207.164062 174.796875 207.164062 171.382812 C 207.164062 168 204.929688 165.765625 201.546875 165.765625 L 181.796875 165.765625 " fill-opacity="1" fill-rule="nonzero"/><g clip-path="url(#32bc0bcaf7)"><path fill="#f5f4e6" d="M 354.996094 219.339844 C 348.230469 206.960938 371.363281 250.960938 323.980469 160.117188 C 323.40625 158.425781 321.714844 157.277344 321.140625 156.734375 L 263.035156 130.21875 C 260.226562 129.070312 256.8125 130.21875 255.695312 133.027344 C 254.578125 135.835938 255.695312 139.21875 258.503906 140.367188 L 304.230469 161.234375 L 193.058594 203.546875 C 39.609375 144.324219 92.640625 165.191406 80.804688 160.660156 L 127.613281 140.941406 C 130.453125 139.792969 131.570312 136.410156 130.453125 133.601562 C 129.304688 130.761719 125.921875 129.644531 123.113281 130.761719 L 63.859375 156.160156 C 62.167969 156.734375 61.59375 158.425781 61.050781 159 L 28.886719 223.296875 C 27.195312 226.679688 28.886719 230.0625 32.269531 231.210938 L 167.691406 270.140625 C 169.957031 270.714844 173.339844 269.566406 174.457031 266.757812 L 193.089844 223.871094 L 214.5 267.300781 C 215.648438 269.566406 217.914062 271.257812 221.296875 270.140625 L 351.613281 227.828125 C 354.996094 226.136719 356.144531 222.753906 354.996094 219.339844 " fill-opacity="1" fill-rule="nonzero"/></g><path fill="#f5f4e6" d="M 184.601562 271.289062 L 186.867188 266.183594 L 186.867188 371.707031 L 64.433594 321.480469 C 62.167969 320.363281 61.050781 318.671875 61.050781 316.40625 L 61.050781 250.960938 L 163.734375 280.285156 C 172.191406 283.125 181.222656 279.171875 184.601562 271.289062 " fill-opacity="1" fill-rule="nonzero"/><path fill="#f5f4e6" d="M 323.980469 248.121094 L 323.980469 315.863281 C 323.980469 318.097656 322.863281 320.363281 320.597656 320.90625 L 198.164062 371.132812 L 198.164062 259.992188 L 203.78125 271.832031 C 207.738281 279.171875 216.191406 283.125 223.53125 280.859375 C 286.167969 260.566406 310.992188 252.652344 319.449219 249.847656 L 321.140625 249.847656 C 321.714844 249.847656 321.714844 249.847656 321.714844 249.269531 L 322.289062 249.269531 C 323.40625 248.121094 323.980469 248.121094 323.980469 248.121094 " fill-opacity="1" fill-rule="nonzero"/></svg>