<svg xmlns="http://www.w3.org/2000/svg" xmlns:xlink="http://www.w3.org/1999/xlink" width="512" zoomAndPan="magnify" viewBox="0 0 384 383.999986" height="512" preserveAspectRatio="xMidYMid meet" version="1.0"><defs><clipPath id="fb92a8d5a6"><path d="M 64.660156 50.511719 L 319.660156 50.511719 L 319.660156 333.261719 L 64.660156 333.261719 Z M 64.660156 50.511719 " clip-rule="nonzero"/></clipPath></defs><path fill="#f5f4e6" d="M 97.675781 149.523438 L 116.539062 149.523438 C 117.15625 149.523438 117.769531 149.585938 118.378906 149.703125 C 118.984375 149.824219 119.574219 150.003906 120.148438 150.242188 C 120.71875 150.480469 121.265625 150.769531 121.777344 151.113281 C 122.292969 151.457031 122.769531 151.847656 123.207031 152.285156 C 123.644531 152.722656 124.039062 153.199219 124.382812 153.714844 C 124.726562 154.230469 125.015625 154.773438 125.253906 155.347656 C 125.488281 155.917969 125.667969 156.507812 125.789062 157.117188 C 125.910156 157.722656 125.972656 158.335938 125.972656 158.957031 L 125.972656 177.820312 C 125.972656 178.441406 125.910156 179.054688 125.789062 179.660156 C 125.667969 180.269531 125.488281 180.859375 125.253906 181.429688 C 125.015625 182.003906 124.726562 182.546875 124.382812 183.0625 C 124.039062 183.574219 123.644531 184.050781 123.207031 184.492188 C 122.769531 184.929688 122.292969 185.320312 121.777344 185.664062 C 121.265625 186.007812 120.71875 186.296875 120.148438 186.535156 C 119.574219 186.773438 118.984375 186.949219 118.378906 187.070312 C 117.769531 187.191406 117.15625 187.253906 116.539062 187.253906 L 97.675781 187.253906 C 97.054688 187.253906 96.441406 187.191406 95.832031 187.070312 C 95.226562 186.949219 94.636719 186.773438 94.066406 186.535156 C 93.492188 186.296875 92.949219 186.007812 92.433594 185.664062 C 91.917969 185.320312 91.441406 184.929688 91.003906 184.492188 C 90.566406 184.050781 90.175781 183.574219 89.832031 183.0625 C 89.488281 182.546875 89.195312 182.003906 88.960938 181.429688 C 88.722656 180.859375 88.542969 180.269531 88.421875 179.660156 C 88.300781 179.054688 88.242188 178.441406 88.242188 177.820312 L 88.242188 158.957031 C 88.242188 158.335938 88.300781 157.722656 88.421875 157.117188 C 88.542969 156.507812 88.722656 155.917969 88.960938 155.347656 C 89.195312 154.773438 89.488281 154.230469 89.832031 153.714844 C 90.175781 153.199219 90.566406 152.722656 91.003906 152.285156 C 91.441406 151.847656 91.917969 151.457031 92.433594 151.113281 C 92.949219 150.769531 93.492188 150.480469 94.066406 150.242188 C 94.636719 150.003906 95.226562 149.824219 95.832031 149.703125 C 96.441406 149.585938 97.054688 149.523438 97.675781 149.523438 Z M 97.675781 149.523438 " fill-opacity="1" fill-rule="nonzero"/><path fill="#f5f4e6" d="M 154.269531 149.523438 L 173.132812 149.523438 C 173.75 149.523438 174.363281 149.585938 174.972656 149.703125 C 175.578125 149.824219 176.167969 150.003906 176.742188 150.242188 C 177.3125 150.480469 177.859375 150.769531 178.371094 151.113281 C 178.886719 151.457031 179.363281 151.847656 179.800781 152.285156 C 180.238281 152.722656 180.632812 153.199219 180.976562 153.714844 C 181.320312 154.230469 181.609375 154.773438 181.847656 155.347656 C 182.082031 155.917969 182.261719 156.507812 182.382812 157.117188 C 182.503906 157.722656 182.566406 158.335938 182.566406 158.957031 L 182.566406 177.820312 C 182.566406 178.441406 182.503906 179.054688 182.382812 179.660156 C 182.261719 180.269531 182.082031 180.859375 181.847656 181.429688 C 181.609375 182.003906 181.320312 182.546875 180.976562 183.0625 C 180.632812 183.574219 180.238281 184.050781 179.800781 184.492188 C 179.363281 184.929688 178.886719 185.320312 178.371094 185.664062 C 177.859375 186.007812 177.3125 186.296875 176.742188 186.535156 C 176.167969 186.773438 175.578125 186.949219 174.972656 187.070312 C 174.363281 187.191406 173.75 187.253906 173.132812 187.253906 L 154.269531 187.253906 C 153.648438 187.253906 153.035156 187.191406 152.425781 187.070312 C 151.820312 186.949219 151.230469 186.773438 150.660156 186.535156 C 150.085938 186.296875 149.542969 186.007812 149.027344 185.664062 C 148.511719 185.320312 148.035156 184.929688 147.597656 184.492188 C 147.160156 184.050781 146.769531 183.574219 146.425781 183.0625 C 146.082031 182.546875 145.789062 182.003906 145.554688 181.429688 C 145.316406 180.859375 145.136719 180.269531 145.015625 179.660156 C 144.894531 179.054688 144.835938 178.441406 144.835938 177.820312 L 144.835938 158.957031 C 144.835938 158.335938 144.894531 157.722656 145.015625 157.117188 C 145.136719 156.507812 145.316406 155.917969 145.554688 155.347656 C 145.789062 154.773438 146.082031 154.230469 146.425781 153.714844 C 146.769531 153.199219 147.160156 152.722656 147.597656 152.285156 C 148.035156 151.847656 148.511719 151.457031 149.027344 151.113281 C 149.542969 150.769531 150.085938 150.480469 150.660156 150.242188 C 151.230469 150.003906 151.820312 149.824219 152.425781 149.703125 C 153.035156 149.585938 153.648438 149.523438 154.269531 149.523438 Z M 154.269531 149.523438 " fill-opacity="1" fill-rule="nonzero"/><path fill="#f5f4e6" d="M 210.863281 149.523438 L 229.726562 149.523438 C 230.34375 149.523438 230.957031 149.585938 231.566406 149.703125 C 232.171875 149.824219 232.761719 150.003906 233.335938 150.242188 C 233.90625 150.480469 234.453125 150.769531 234.964844 151.113281 C 235.480469 151.457031 235.957031 151.847656 236.394531 152.285156 C 236.832031 152.722656 237.226562 153.199219 237.570312 153.714844 C 237.914062 154.230469 238.203125 154.773438 238.441406 155.347656 C 238.675781 155.917969 238.855469 156.507812 238.976562 157.117188 C 239.097656 157.722656 239.160156 158.335938 239.160156 158.957031 L 239.160156 177.820312 C 239.160156 178.441406 239.097656 179.054688 238.976562 179.660156 C 238.855469 180.269531 238.675781 180.859375 238.441406 181.429688 C 238.203125 182.003906 237.914062 182.546875 237.570312 183.0625 C 237.226562 183.574219 236.832031 184.050781 236.394531 184.492188 C 235.957031 184.929688 235.480469 185.320312 234.964844 185.664062 C 234.453125 186.007812 233.90625 186.296875 233.335938 186.535156 C 232.761719 186.773438 232.171875 186.949219 231.566406 187.070312 C 230.957031 187.191406 230.34375 187.253906 229.726562 187.253906 L 210.863281 187.253906 C 210.242188 187.253906 209.628906 187.191406 209.019531 187.070312 C 208.414062 186.949219 207.824219 186.773438 207.253906 186.535156 C 206.679688 186.296875 206.136719 186.007812 205.621094 185.664062 C 205.105469 185.320312 204.628906 184.929688 204.191406 184.492188 C 203.753906 184.050781 203.363281 183.574219 203.019531 183.0625 C 202.675781 182.546875 202.382812 182.003906 202.148438 181.429688 C 201.910156 180.859375 201.730469 180.269531 201.609375 179.660156 C 201.488281 179.054688 201.429688 178.441406 201.429688 177.820312 L 201.429688 158.957031 C 201.429688 158.335938 201.488281 157.722656 201.609375 157.117188 C 201.730469 156.507812 201.910156 155.917969 202.148438 155.347656 C 202.382812 154.773438 202.675781 154.230469 203.019531 153.714844 C 203.363281 153.199219 203.753906 152.722656 204.191406 152.285156 C 204.628906 151.847656 205.105469 151.457031 205.621094 151.113281 C 206.136719 150.769531 206.679688 150.480469 207.253906 150.242188 C 207.824219 150.003906 208.414062 149.824219 209.019531 149.703125 C 209.628906 149.585938 210.242188 149.523438 210.863281 149.523438 Z M 210.863281 149.523438 " fill-opacity="1" fill-rule="nonzero"/><path fill="#f5f4e6" d="M 267.457031 149.523438 L 286.320312 149.523438 C 286.9375 149.523438 287.550781 149.585938 288.160156 149.703125 C 288.765625 149.824219 289.355469 150.003906 289.929688 150.242188 C 290.5 150.480469 291.046875 150.769531 291.558594 151.113281 C 292.074219 151.457031 292.550781 151.847656 292.988281 152.285156 C 293.425781 152.722656 293.820312 153.199219 294.164062 153.714844 C 294.507812 154.230469 294.796875 154.773438 295.035156 155.347656 C 295.269531 155.917969 295.449219 156.507812 295.570312 157.117188 C 295.691406 157.722656 295.753906 158.335938 295.753906 158.957031 L 295.753906 177.820312 C 295.753906 178.441406 295.691406 179.054688 295.570312 179.660156 C 295.449219 180.269531 295.269531 180.859375 295.035156 181.429688 C 294.796875 182.003906 294.507812 182.546875 294.164062 183.0625 C 293.820312 183.574219 293.425781 184.050781 292.988281 184.492188 C 292.550781 184.929688 292.074219 185.320312 291.558594 185.664062 C 291.046875 186.007812 290.5 186.296875 289.929688 186.535156 C 289.355469 186.773438 288.765625 186.949219 288.160156 187.070312 C 287.550781 187.191406 286.9375 187.253906 286.320312 187.253906 L 267.457031 187.253906 C 266.835938 187.253906 266.222656 187.191406 265.613281 187.070312 C 265.007812 186.949219 264.417969 186.773438 263.847656 186.535156 C 263.273438 186.296875 262.730469 186.007812 262.214844 185.664062 C 261.699219 185.320312 261.222656 184.929688 260.785156 184.492188 C 260.347656 184.050781 259.957031 183.574219 259.613281 183.0625 C 259.269531 182.546875 258.976562 182.003906 258.742188 181.429688 C 258.503906 180.859375 258.324219 180.269531 258.203125 179.660156 C 258.082031 179.054688 258.023438 178.441406 258.023438 177.820312 L 258.023438 158.957031 C 258.023438 158.335938 258.082031 157.722656 258.203125 157.117188 C 258.324219 156.507812 258.503906 155.917969 258.742188 155.347656 C 258.976562 154.773438 259.269531 154.230469 259.613281 153.714844 C 259.957031 153.199219 260.347656 152.722656 260.785156 152.285156 C 261.222656 151.847656 261.699219 151.457031 262.214844 151.113281 C 262.730469 150.769531 263.273438 150.480469 263.847656 150.242188 C 264.417969 150.003906 265.007812 149.824219 265.613281 149.703125 C 266.222656 149.585938 266.835938 149.523438 267.457031 149.523438 Z M 267.457031 149.523438 " fill-opacity="1" fill-rule="nonzero"/><path fill="#f5f4e6" d="M 97.675781 201.402344 L 116.539062 201.402344 C 117.15625 201.402344 117.769531 201.460938 118.378906 201.582031 C 118.984375 201.703125 119.574219 201.882812 120.148438 202.121094 C 120.71875 202.355469 121.265625 202.648438 121.777344 202.992188 C 122.292969 203.335938 122.769531 203.726562 123.207031 204.164062 C 123.644531 204.601562 124.039062 205.078125 124.382812 205.59375 C 124.726562 206.109375 125.015625 206.652344 125.253906 207.222656 C 125.488281 207.796875 125.667969 208.386719 125.789062 208.992188 C 125.910156 209.601562 125.972656 210.214844 125.972656 210.832031 L 125.972656 229.699219 C 125.972656 230.316406 125.910156 230.929688 125.789062 231.539062 C 125.667969 232.144531 125.488281 232.734375 125.253906 233.308594 C 125.015625 233.878906 124.726562 234.421875 124.382812 234.9375 C 124.039062 235.453125 123.644531 235.929688 123.207031 236.367188 C 122.769531 236.804688 122.292969 237.195312 121.777344 237.539062 C 121.265625 237.886719 120.71875 238.175781 120.148438 238.414062 C 119.574219 238.648438 118.984375 238.828125 118.378906 238.949219 C 117.769531 239.070312 117.15625 239.128906 116.539062 239.128906 L 97.675781 239.128906 C 97.054688 239.128906 96.441406 239.070312 95.832031 238.949219 C 95.226562 238.828125 94.636719 238.648438 94.066406 238.414062 C 93.492188 238.175781 92.949219 237.886719 92.433594 237.539062 C 91.917969 237.195312 91.441406 236.804688 91.003906 236.367188 C 90.566406 235.929688 90.175781 235.453125 89.832031 234.9375 C 89.488281 234.421875 89.195312 233.878906 88.960938 233.308594 C 88.722656 232.734375 88.542969 232.144531 88.421875 231.539062 C 88.300781 230.929688 88.242188 230.316406 88.242188 229.699219 L 88.242188 210.832031 C 88.242188 210.214844 88.300781 209.601562 88.421875 208.992188 C 88.542969 208.386719 88.722656 207.796875 88.960938 207.222656 C 89.195312 206.652344 89.488281 206.109375 89.832031 205.59375 C 90.175781 205.078125 90.566406 204.601562 91.003906 204.164062 C 91.441406 203.726562 91.917969 203.335938 92.433594 202.992188 C 92.949219 202.648438 93.492188 202.355469 94.066406 202.121094 C 94.636719 201.882812 95.226562 201.703125 95.832031 201.582031 C 96.441406 201.460938 97.054688 201.402344 97.675781 201.402344 Z M 97.675781 201.402344 " fill-opacity="1" fill-rule="nonzero"/><path fill="#f5f4e6" d="M 154.269531 199.042969 L 173.132812 199.042969 C 173.75 199.042969 174.363281 199.105469 174.972656 199.222656 C 175.578125 199.34375 176.167969 199.523438 176.742188 199.761719 C 177.3125 200 177.859375 200.289062 178.371094 200.632812 C 178.886719 200.976562 179.363281 201.367188 179.800781 201.804688 C 180.238281 202.242188 180.632812 202.71875 180.976562 203.234375 C 181.320312 203.75 181.609375 204.292969 181.847656 204.867188 C 182.082031 205.4375 182.261719 206.027344 182.382812 206.636719 C 182.503906 207.242188 182.566406 207.855469 182.566406 208.476562 L 182.566406 227.339844 C 182.566406 227.960938 182.503906 228.574219 182.382812 229.179688 C 182.261719 229.789062 182.082031 230.378906 181.847656 230.949219 C 181.609375 231.523438 181.320312 232.066406 180.976562 232.582031 C 180.632812 233.09375 180.238281 233.570312 179.800781 234.011719 C 179.363281 234.449219 178.886719 234.839844 178.371094 235.183594 C 177.859375 235.527344 177.3125 235.816406 176.742188 236.054688 C 176.167969 236.292969 175.578125 236.46875 174.972656 236.589844 C 174.363281 236.710938 173.75 236.773438 173.132812 236.773438 L 154.269531 236.773438 C 153.648438 236.773438 153.035156 236.710938 152.425781 236.589844 C 151.820312 236.46875 151.230469 236.292969 150.660156 236.054688 C 150.085938 235.816406 149.542969 235.527344 149.027344 235.183594 C 148.511719 234.839844 148.035156 234.449219 147.597656 234.011719 C 147.160156 233.570312 146.769531 233.09375 146.425781 232.582031 C 146.082031 232.066406 145.789062 231.523438 145.554688 230.949219 C 145.316406 230.378906 145.136719 229.789062 145.015625 229.179688 C 144.894531 228.574219 144.835938 227.960938 144.835938 227.339844 L 144.835938 208.476562 C 144.835938 207.855469 144.894531 207.242188 145.015625 206.636719 C 145.136719 206.027344 145.316406 205.4375 145.554688 204.867188 C 145.789062 204.292969 146.082031 203.75 146.425781 203.234375 C 146.769531 202.71875 147.160156 202.242188 147.597656 201.804688 C 148.035156 201.367188 148.511719 200.976562 149.027344 200.632812 C 149.542969 200.289062 150.085938 200 150.660156 199.761719 C 151.230469 199.523438 151.820312 199.34375 152.425781 199.222656 C 153.035156 199.105469 153.648438 199.042969 154.269531 199.042969 Z M 154.269531 199.042969 " fill-opacity="1" fill-rule="nonzero"/><path fill="#f5f4e6" d="M 210.863281 199.042969 L 229.726562 199.042969 C 230.34375 199.042969 230.957031 199.105469 231.566406 199.222656 C 232.171875 199.34375 232.761719 199.523438 233.335938 199.761719 C 233.90625 200 234.453125 200.289062 234.964844 200.632812 C 235.480469 200.976562 235.957031 201.367188 236.394531 201.804688 C 236.832031 202.242188 237.226562 202.71875 237.570312 203.234375 C 237.914062 203.75 238.203125 204.292969 238.441406 204.867188 C 238.675781 205.4375 238.855469 206.027344 238.976562 206.636719 C 239.097656 207.242188 239.160156 207.855469 239.160156 208.476562 L 239.160156 227.339844 C 239.160156 227.960938 239.097656 228.574219 238.976562 229.179688 C 238.855469 229.789062 238.675781 230.378906 238.441406 230.949219 C 238.203125 231.523438 237.914062 232.066406 237.570312 232.582031 C 237.226562 233.09375 236.832031 233.570312 236.394531 234.011719 C 235.957031 234.449219 235.480469 234.839844 234.964844 235.183594 C 234.453125 235.527344 233.90625 235.816406 233.335938 236.054688 C 232.761719 236.292969 232.171875 236.46875 231.566406 236.589844 C 230.957031 236.710938 230.34375 236.773438 229.726562 236.773438 L 210.863281 236.773438 C 210.242188 236.773438 209.628906 236.710938 209.019531 236.589844 C 208.414062 236.46875 207.824219 236.292969 207.253906 236.054688 C 206.679688 235.816406 206.136719 235.527344 205.621094 235.183594 C 205.105469 234.839844 204.628906 234.449219 204.191406 234.011719 C 203.753906 233.570312 203.363281 233.09375 203.019531 232.582031 C 202.675781 232.066406 202.382812 231.523438 202.148438 230.949219 C 201.910156 230.378906 201.730469 229.789062 201.609375 229.179688 C 201.488281 228.574219 201.429688 227.960938 201.429688 227.339844 L 201.429688 208.476562 C 201.429688 207.855469 201.488281 207.242188 201.609375 206.636719 C 201.730469 206.027344 201.910156 205.4375 202.148438 204.867188 C 202.382812 204.292969 202.675781 203.75 203.019531 203.234375 C 203.363281 202.71875 203.753906 202.242188 204.191406 201.804688 C 204.628906 201.367188 205.105469 200.976562 205.621094 200.632812 C 206.136719 200.289062 206.679688 200 207.253906 199.761719 C 207.824219 199.523438 208.414062 199.34375 209.019531 199.222656 C 209.628906 199.105469 210.242188 199.042969 210.863281 199.042969 Z M 210.863281 199.042969 " fill-opacity="1" fill-rule="nonzero"/><path fill="#f5f4e6" d="M 267.457031 199.042969 L 286.320312 199.042969 C 286.9375 199.042969 287.550781 199.105469 288.160156 199.222656 C 288.765625 199.34375 289.355469 199.523438 289.929688 199.761719 C 290.5 200 291.046875 200.289062 291.558594 200.632812 C 292.074219 200.976562 292.550781 201.367188 292.988281 201.804688 C 293.425781 202.242188 293.820312 202.71875 294.164062 203.234375 C 294.507812 203.75 294.796875 204.292969 295.035156 204.867188 C 295.269531 205.4375 295.449219 206.027344 295.570312 206.636719 C 295.691406 207.242188 295.753906 207.855469 295.753906 208.476562 L 295.753906 227.339844 C 295.753906 227.960938 295.691406 228.574219 295.570312 229.179688 C 295.449219 229.789062 295.269531 230.378906 295.035156 230.949219 C 294.796875 231.523438 294.507812 232.066406 294.164062 232.582031 C 293.820312 233.09375 293.425781 233.570312 292.988281 234.011719 C 292.550781 234.449219 292.074219 234.839844 291.558594 235.183594 C 291.046875 235.527344 290.5 235.816406 289.929688 236.054688 C 289.355469 236.292969 288.765625 236.46875 288.160156 236.589844 C 287.550781 236.710938 286.9375 236.773438 286.320312 236.773438 L 267.457031 236.773438 C 266.835938 236.773438 266.222656 236.710938 265.613281 236.589844 C 265.007812 236.46875 264.417969 236.292969 263.847656 236.054688 C 263.273438 235.816406 262.730469 235.527344 262.214844 235.183594 C 261.699219 234.839844 261.222656 234.449219 260.785156 234.011719 C 260.347656 233.570312 259.957031 233.09375 259.613281 232.582031 C 259.269531 232.066406 258.976562 231.523438 258.742188 230.949219 C 258.503906 230.378906 258.324219 229.789062 258.203125 229.179688 C 258.082031 228.574219 258.023438 227.960938 258.023438 227.339844 L 258.023438 208.476562 C 258.023438 207.855469 258.082031 207.242188 258.203125 206.636719 C 258.324219 206.027344 258.503906 205.4375 258.742188 204.867188 C 258.976562 204.292969 259.269531 203.75 259.613281 203.234375 C 259.957031 202.71875 260.347656 202.242188 260.785156 201.804688 C 261.222656 201.367188 261.699219 200.976562 262.214844 200.632812 C 262.730469 200.289062 263.273438 200 263.847656 199.761719 C 264.417969 199.523438 265.007812 199.34375 265.613281 199.222656 C 266.222656 199.105469 266.835938 199.042969 267.457031 199.042969 Z M 267.457031 199.042969 " fill-opacity="1" fill-rule="nonzero"/><path fill="#f5f4e6" d="M 97.675781 248.5625 L 116.539062 248.5625 C 117.15625 248.5625 117.769531 248.625 118.378906 248.742188 C 118.984375 248.863281 119.574219 249.042969 120.148438 249.28125 C 120.71875 249.519531 121.265625 249.808594 121.777344 250.152344 C 122.292969 250.496094 122.769531 250.886719 123.207031 251.324219 C 123.644531 251.761719 124.039062 252.238281 124.382812 252.753906 C 124.726562 253.269531 125.015625 253.8125 125.253906 254.386719 C 125.488281 254.957031 125.667969 255.546875 125.789062 256.15625 C 125.910156 256.761719 125.972656 257.375 125.972656 257.996094 L 125.972656 276.859375 C 125.972656 277.480469 125.910156 278.09375 125.789062 278.699219 C 125.667969 279.308594 125.488281 279.898438 125.253906 280.46875 C 125.015625 281.042969 124.726562 281.585938 124.382812 282.101562 C 124.039062 282.613281 123.644531 283.089844 123.207031 283.53125 C 122.769531 283.96875 122.292969 284.359375 121.777344 284.703125 C 121.265625 285.046875 120.71875 285.335938 120.148438 285.574219 C 119.574219 285.8125 118.984375 285.988281 118.378906 286.109375 C 117.769531 286.230469 117.15625 286.292969 116.539062 286.292969 L 97.675781 286.292969 C 97.054688 286.292969 96.441406 286.230469 95.832031 286.109375 C 95.226562 285.988281 94.636719 285.8125 94.066406 285.574219 C 93.492188 285.335938 92.949219 285.046875 92.433594 284.703125 C 91.917969 284.359375 91.441406 283.96875 91.003906 283.53125 C 90.566406 283.089844 90.175781 282.613281 89.832031 282.101562 C 89.488281 281.585938 89.195312 281.042969 88.960938 280.46875 C 88.722656 279.898438 88.542969 279.308594 88.421875 278.699219 C 88.300781 278.09375 88.242188 277.480469 88.242188 276.859375 L 88.242188 257.996094 C 88.242188 257.375 88.300781 256.761719 88.421875 256.15625 C 88.542969 255.546875 88.722656 254.957031 88.960938 254.386719 C 89.195312 253.8125 89.488281 253.269531 89.832031 252.753906 C 90.175781 252.238281 90.566406 251.761719 91.003906 251.324219 C 91.441406 250.886719 91.917969 250.496094 92.433594 250.152344 C 92.949219 249.808594 93.492188 249.519531 94.066406 249.28125 C 94.636719 249.042969 95.226562 248.863281 95.832031 248.742188 C 96.441406 248.625 97.054688 248.5625 97.675781 248.5625 Z M 97.675781 248.5625 " fill-opacity="1" fill-rule="nonzero"/><path fill="#f5f4e6" d="M 154.269531 248.5625 L 173.132812 248.5625 C 173.75 248.5625 174.363281 248.625 174.972656 248.742188 C 175.578125 248.863281 176.167969 249.042969 176.742188 249.28125 C 177.3125 249.519531 177.859375 249.808594 178.371094 250.152344 C 178.886719 250.496094 179.363281 250.886719 179.800781 251.324219 C 180.238281 251.761719 180.632812 252.238281 180.976562 252.753906 C 181.320312 253.269531 181.609375 253.8125 181.847656 254.386719 C 182.082031 254.957031 182.261719 255.546875 182.382812 256.15625 C 182.503906 256.761719 182.566406 257.375 182.566406 257.996094 L 182.566406 276.859375 C 182.566406 277.480469 182.503906 278.09375 182.382812 278.699219 C 182.261719 279.308594 182.082031 279.898438 181.847656 280.46875 C 181.609375 281.042969 181.320312 281.585938 180.976562 282.101562 C 180.632812 282.613281 180.238281 283.089844 179.800781 283.53125 C 179.363281 283.96875 178.886719 284.359375 178.371094 284.703125 C 177.859375 285.046875 177.3125 285.335938 176.742188 285.574219 C 176.167969 285.8125 175.578125 285.988281 174.972656 286.109375 C 174.363281 286.230469 173.75 286.292969 173.132812 286.292969 L 154.269531 286.292969 C 153.648438 286.292969 153.035156 286.230469 152.425781 286.109375 C 151.820312 285.988281 151.230469 285.8125 150.660156 285.574219 C 150.085938 285.335938 149.542969 285.046875 149.027344 284.703125 C 148.511719 284.359375 148.035156 283.96875 147.597656 283.53125 C 147.160156 283.089844 146.769531 282.613281 146.425781 282.101562 C 146.082031 281.585938 145.789062 281.042969 145.554688 280.46875 C 145.316406 279.898438 145.136719 279.308594 145.015625 278.699219 C 144.894531 278.09375 144.835938 277.480469 144.835938 276.859375 L 144.835938 257.996094 C 144.835938 257.375 144.894531 256.761719 145.015625 256.15625 C 145.136719 255.546875 145.316406 254.957031 145.554688 254.386719 C 145.789062 253.8125 146.082031 253.269531 146.425781 252.753906 C 146.769531 252.238281 147.160156 251.761719 147.597656 251.324219 C 148.035156 250.886719 148.511719 250.496094 149.027344 250.152344 C 149.542969 249.808594 150.085938 249.519531 150.660156 249.28125 C 151.230469 249.042969 151.820312 248.863281 152.425781 248.742188 C 153.035156 248.625 153.648438 248.5625 154.269531 248.5625 Z M 154.269531 248.5625 " fill-opacity="1" fill-rule="nonzero"/><path fill="#f5f4e6" d="M 210.863281 248.5625 L 229.726562 248.5625 C 230.34375 248.5625 230.957031 248.625 231.566406 248.742188 C 232.171875 248.863281 232.761719 249.042969 233.335938 249.28125 C 233.90625 249.519531 234.453125 249.808594 234.964844 250.152344 C 235.480469 250.496094 235.957031 250.886719 236.394531 251.324219 C 236.832031 251.761719 237.226562 252.238281 237.570312 252.753906 C 237.914062 253.269531 238.203125 253.8125 238.441406 254.386719 C 238.675781 254.957031 238.855469 255.546875 238.976562 256.15625 C 239.097656 256.761719 239.160156 257.375 239.160156 257.996094 L 239.160156 276.859375 C 239.160156 277.480469 239.097656 278.09375 238.976562 278.699219 C 238.855469 279.308594 238.675781 279.898438 238.441406 280.46875 C 238.203125 281.042969 237.914062 281.585938 237.570312 282.101562 C 237.226562 282.613281 236.832031 283.089844 236.394531 283.53125 C 235.957031 283.96875 235.480469 284.359375 234.964844 284.703125 C 234.453125 285.046875 233.90625 285.335938 233.335938 285.574219 C 232.761719 285.8125 232.171875 285.988281 231.566406 286.109375 C 230.957031 286.230469 230.34375 286.292969 229.726562 286.292969 L 210.863281 286.292969 C 210.242188 286.292969 209.628906 286.230469 209.019531 286.109375 C 208.414062 285.988281 207.824219 285.8125 207.253906 285.574219 C 206.679688 285.335938 206.136719 285.046875 205.621094 284.703125 C 205.105469 284.359375 204.628906 283.96875 204.191406 283.53125 C 203.753906 283.089844 203.363281 282.613281 203.019531 282.101562 C 202.675781 281.585938 202.382812 281.042969 202.148438 280.46875 C 201.910156 279.898438 201.730469 279.308594 201.609375 278.699219 C 201.488281 278.09375 201.429688 277.480469 201.429688 276.859375 L 201.429688 257.996094 C 201.429688 257.375 201.488281 256.761719 201.609375 256.15625 C 201.730469 255.546875 201.910156 254.957031 202.148438 254.386719 C 202.382812 253.8125 202.675781 253.269531 203.019531 252.753906 C 203.363281 252.238281 203.753906 251.761719 204.191406 251.324219 C 204.628906 250.886719 205.105469 250.496094 205.621094 250.152344 C 206.136719 249.808594 206.679688 249.519531 207.253906 249.28125 C 207.824219 249.042969 208.414062 248.863281 209.019531 248.742188 C 209.628906 248.625 210.242188 248.5625 210.863281 248.5625 Z M 210.863281 248.5625 " fill-opacity="1" fill-rule="nonzero"/><g clip-path="url(#fb92a8d5a6)"><path fill="#f5f4e6" d="M 295.753906 69.347656 L 281.605469 69.347656 L 281.605469 66.992188 C 281.605469 66.449219 281.578125 65.910156 281.523438 65.375 C 281.472656 64.835938 281.390625 64.300781 281.285156 63.769531 C 281.179688 63.242188 281.050781 62.71875 280.894531 62.199219 C 280.734375 61.683594 280.554688 61.175781 280.347656 60.675781 C 280.140625 60.175781 279.910156 59.6875 279.65625 59.210938 C 279.398438 58.734375 279.121094 58.269531 278.820312 57.820312 C 278.523438 57.371094 278.199219 56.9375 277.855469 56.519531 C 277.515625 56.101562 277.152344 55.703125 276.769531 55.320312 C 276.386719 54.9375 275.988281 54.574219 275.570312 54.230469 C 275.152344 53.886719 274.71875 53.566406 274.269531 53.265625 C 273.816406 52.964844 273.355469 52.6875 272.878906 52.433594 C 272.402344 52.179688 271.914062 51.949219 271.414062 51.742188 C 270.914062 51.535156 270.40625 51.351562 269.890625 51.195312 C 269.371094 51.039062 268.847656 50.90625 268.316406 50.800781 C 267.789062 50.695312 267.253906 50.617188 266.714844 50.5625 C 266.175781 50.511719 265.636719 50.484375 265.097656 50.484375 C 264.558594 50.484375 264.015625 50.511719 263.480469 50.5625 C 262.941406 50.617188 262.40625 50.695312 261.878906 50.800781 C 261.347656 50.90625 260.824219 51.039062 260.304688 51.195312 C 259.789062 51.351562 259.28125 51.535156 258.78125 51.742188 C 258.28125 51.949219 257.792969 52.179688 257.316406 52.433594 C 256.839844 52.6875 256.375 52.964844 255.925781 53.265625 C 255.476562 53.566406 255.042969 53.886719 254.625 54.230469 C 254.207031 54.574219 253.808594 54.9375 253.425781 55.320312 C 253.042969 55.703125 252.679688 56.101562 252.335938 56.519531 C 251.996094 56.9375 251.671875 57.371094 251.371094 57.820312 C 251.070312 58.269531 250.792969 58.734375 250.539062 59.210938 C 250.285156 59.6875 250.054688 60.175781 249.847656 60.675781 C 249.640625 61.175781 249.457031 61.683594 249.300781 62.199219 C 249.144531 62.71875 249.011719 63.242188 248.90625 63.769531 C 248.800781 64.300781 248.722656 64.835938 248.671875 65.375 C 248.617188 65.910156 248.589844 66.449219 248.589844 66.992188 L 248.589844 69.347656 L 208.503906 69.347656 L 208.503906 66.992188 C 208.503906 66.449219 208.476562 65.910156 208.425781 65.375 C 208.371094 64.835938 208.292969 64.300781 208.1875 63.769531 C 208.082031 63.242188 207.949219 62.71875 207.792969 62.199219 C 207.636719 61.683594 207.453125 61.175781 207.246094 60.675781 C 207.039062 60.175781 206.808594 59.6875 206.554688 59.210938 C 206.300781 58.734375 206.023438 58.269531 205.722656 57.820312 C 205.421875 57.371094 205.101562 56.9375 204.757812 56.519531 C 204.414062 56.101562 204.050781 55.703125 203.667969 55.320312 C 203.285156 54.9375 202.886719 54.574219 202.46875 54.230469 C 202.050781 53.886719 201.617188 53.566406 201.167969 53.265625 C 200.71875 52.964844 200.253906 52.6875 199.777344 52.433594 C 199.300781 52.179688 198.8125 51.949219 198.3125 51.742188 C 197.8125 51.535156 197.304688 51.351562 196.789062 51.195312 C 196.269531 51.039062 195.746094 50.90625 195.21875 50.800781 C 194.6875 50.695312 194.152344 50.617188 193.613281 50.5625 C 193.078125 50.511719 192.539062 50.484375 191.996094 50.484375 C 191.457031 50.484375 190.917969 50.511719 190.378906 50.5625 C 189.839844 50.617188 189.308594 50.695312 188.777344 50.800781 C 188.246094 50.90625 187.722656 51.039062 187.207031 51.195312 C 186.6875 51.351562 186.179688 51.535156 185.679688 51.742188 C 185.179688 51.949219 184.691406 52.179688 184.214844 52.433594 C 183.738281 52.6875 183.277344 52.964844 182.828125 53.265625 C 182.378906 53.566406 181.941406 53.886719 181.523438 54.230469 C 181.109375 54.574219 180.707031 54.9375 180.324219 55.320312 C 179.941406 55.703125 179.582031 56.101562 179.238281 56.519531 C 178.894531 56.9375 178.574219 57.371094 178.273438 57.820312 C 177.972656 58.269531 177.695312 58.734375 177.441406 59.210938 C 177.183594 59.6875 176.953125 60.175781 176.746094 60.675781 C 176.539062 61.175781 176.359375 61.683594 176.203125 62.199219 C 176.042969 62.71875 175.914062 63.242188 175.808594 63.769531 C 175.703125 64.300781 175.621094 64.835938 175.570312 65.375 C 175.515625 65.910156 175.492188 66.449219 175.492188 66.992188 L 175.492188 69.347656 L 135.402344 69.347656 L 135.402344 66.992188 C 135.402344 66.449219 135.375 65.910156 135.324219 65.375 C 135.269531 64.835938 135.191406 64.300781 135.085938 63.769531 C 134.980469 63.242188 134.847656 62.71875 134.691406 62.199219 C 134.535156 61.683594 134.355469 61.175781 134.148438 60.675781 C 133.941406 60.175781 133.710938 59.6875 133.453125 59.210938 C 133.199219 58.734375 132.921875 58.269531 132.621094 57.820312 C 132.320312 57.371094 132 56.9375 131.65625 56.519531 C 131.3125 56.101562 130.949219 55.703125 130.570312 55.320312 C 130.1875 54.9375 129.785156 54.574219 129.367188 54.230469 C 128.949219 53.886719 128.515625 53.566406 128.066406 53.265625 C 127.617188 52.964844 127.15625 52.6875 126.679688 52.433594 C 126.199219 52.179688 125.714844 51.949219 125.214844 51.742188 C 124.714844 51.535156 124.207031 51.351562 123.6875 51.195312 C 123.171875 51.039062 122.648438 50.90625 122.117188 50.800781 C 121.585938 50.695312 121.050781 50.617188 120.515625 50.5625 C 119.976562 50.511719 119.4375 50.484375 118.898438 50.484375 C 118.355469 50.484375 117.816406 50.511719 117.277344 50.5625 C 116.742188 50.617188 116.207031 50.695312 115.675781 50.800781 C 115.144531 50.90625 114.621094 51.039062 114.105469 51.195312 C 113.585938 51.351562 113.078125 51.535156 112.578125 51.742188 C 112.082031 51.949219 111.59375 52.179688 111.117188 52.433594 C 110.640625 52.6875 110.175781 52.964844 109.726562 53.265625 C 109.277344 53.566406 108.84375 53.886719 108.425781 54.230469 C 108.007812 54.574219 107.605469 54.9375 107.226562 55.320312 C 106.84375 55.703125 106.480469 56.101562 106.136719 56.519531 C 105.792969 56.9375 105.472656 57.371094 105.171875 57.820312 C 104.871094 58.269531 104.59375 58.734375 104.339844 59.210938 C 104.085938 59.6875 103.855469 60.175781 103.648438 60.675781 C 103.441406 61.175781 103.257812 61.683594 103.101562 62.199219 C 102.945312 62.71875 102.8125 63.242188 102.707031 63.769531 C 102.601562 64.300781 102.523438 64.835938 102.46875 65.375 C 102.417969 65.910156 102.390625 66.449219 102.390625 66.992188 L 102.390625 69.347656 L 88.242188 69.347656 C 87.46875 69.347656 86.699219 69.386719 85.929688 69.464844 C 85.160156 69.539062 84.398438 69.652344 83.640625 69.800781 C 82.882812 69.953125 82.136719 70.140625 81.398438 70.363281 C 80.65625 70.589844 79.929688 70.847656 79.21875 71.144531 C 78.503906 71.441406 77.808594 71.769531 77.125 72.132812 C 76.445312 72.496094 75.78125 72.894531 75.140625 73.324219 C 74.5 73.753906 73.878906 74.210938 73.28125 74.703125 C 72.683594 75.191406 72.113281 75.710938 71.566406 76.257812 C 71.023438 76.800781 70.503906 77.375 70.011719 77.96875 C 69.523438 78.566406 69.0625 79.1875 68.636719 79.828125 C 68.207031 80.472656 67.808594 81.132812 67.445312 81.8125 C 67.082031 82.496094 66.75 83.191406 66.457031 83.90625 C 66.160156 84.621094 65.902344 85.347656 65.675781 86.085938 C 65.453125 86.824219 65.265625 87.570312 65.113281 88.328125 C 64.964844 89.085938 64.851562 89.851562 64.773438 90.617188 C 64.699219 91.386719 64.660156 92.15625 64.660156 92.929688 L 64.660156 309.871094 C 64.660156 310.644531 64.699219 311.414062 64.773438 312.183594 C 64.851562 312.953125 64.964844 313.714844 65.113281 314.472656 C 65.265625 315.230469 65.453125 315.980469 65.675781 316.71875 C 65.902344 317.457031 66.160156 318.183594 66.457031 318.898438 C 66.75 319.609375 67.082031 320.308594 67.445312 320.988281 C 67.808594 321.667969 68.207031 322.332031 68.636719 322.972656 C 69.0625 323.617188 69.523438 324.234375 70.011719 324.832031 C 70.503906 325.429688 71.023438 326 71.566406 326.546875 C 72.113281 327.09375 72.683594 327.609375 73.28125 328.101562 C 73.878906 328.589844 74.5 329.050781 75.140625 329.480469 C 75.78125 329.910156 76.445312 330.304688 77.125 330.667969 C 77.808594 331.03125 78.503906 331.363281 79.21875 331.660156 C 79.929688 331.953125 80.65625 332.214844 81.398438 332.4375 C 82.136719 332.664062 82.882812 332.851562 83.640625 333 C 84.398438 333.152344 85.160156 333.265625 85.929688 333.339844 C 86.699219 333.414062 87.46875 333.453125 88.242188 333.453125 L 295.753906 333.453125 C 296.523438 333.453125 297.296875 333.414062 298.0625 333.339844 C 298.832031 333.265625 299.59375 333.152344 300.351562 333 C 301.109375 332.851562 301.859375 332.664062 302.597656 332.4375 C 303.335938 332.214844 304.0625 331.953125 304.777344 331.660156 C 305.488281 331.363281 306.1875 331.03125 306.867188 330.667969 C 307.550781 330.304688 308.210938 329.910156 308.851562 329.480469 C 309.496094 329.050781 310.113281 328.589844 310.710938 328.101562 C 311.308594 327.609375 311.878906 327.09375 312.425781 326.546875 C 312.972656 326 313.492188 325.429688 313.980469 324.832031 C 314.46875 324.234375 314.929688 323.617188 315.359375 322.972656 C 315.789062 322.332031 316.183594 321.667969 316.546875 320.988281 C 316.914062 320.308594 317.242188 319.609375 317.539062 318.898438 C 317.832031 318.183594 318.09375 317.457031 318.316406 316.71875 C 318.542969 315.980469 318.730469 315.230469 318.878906 314.472656 C 319.03125 313.714844 319.144531 312.953125 319.21875 312.183594 C 319.296875 311.414062 319.332031 310.644531 319.332031 309.871094 L 319.332031 92.929688 C 319.332031 92.15625 319.296875 91.386719 319.21875 90.617188 C 319.144531 89.851562 319.03125 89.085938 318.878906 88.328125 C 318.730469 87.570312 318.542969 86.824219 318.316406 86.085938 C 318.09375 85.347656 317.832031 84.621094 317.539062 83.90625 C 317.242188 83.191406 316.914062 82.496094 316.546875 81.8125 C 316.183594 81.132812 315.789062 80.472656 315.359375 79.828125 C 314.929688 79.1875 314.46875 78.566406 313.980469 77.96875 C 313.492188 77.375 312.972656 76.800781 312.425781 76.257812 C 311.878906 75.710938 311.308594 75.191406 310.710938 74.703125 C 310.113281 74.210938 309.496094 73.753906 308.851562 73.324219 C 308.210938 72.894531 307.550781 72.496094 306.867188 72.132812 C 306.1875 71.769531 305.488281 71.441406 304.777344 71.144531 C 304.0625 70.847656 303.335938 70.589844 302.597656 70.363281 C 301.859375 70.140625 301.109375 69.953125 300.351562 69.800781 C 299.59375 69.652344 298.832031 69.539062 298.0625 69.464844 C 297.296875 69.386719 296.523438 69.347656 295.753906 69.347656 Z M 258.023438 66.992188 C 258.023438 66.527344 258.066406 66.066406 258.160156 65.609375 C 258.25 65.15625 258.382812 64.714844 258.5625 64.285156 C 258.738281 63.855469 258.957031 63.449219 259.214844 63.0625 C 259.472656 62.675781 259.765625 62.316406 260.09375 61.988281 C 260.421875 61.660156 260.78125 61.367188 261.167969 61.109375 C 261.554688 60.851562 261.960938 60.632812 262.390625 60.457031 C 262.820312 60.277344 263.261719 60.144531 263.71875 60.054688 C 264.171875 59.960938 264.632812 59.917969 265.097656 59.917969 C 265.5625 59.917969 266.023438 59.960938 266.476562 60.054688 C 266.933594 60.144531 267.375 60.277344 267.804688 60.457031 C 268.234375 60.632812 268.640625 60.851562 269.027344 61.109375 C 269.414062 61.367188 269.769531 61.660156 270.097656 61.988281 C 270.429688 62.316406 270.722656 62.675781 270.980469 63.0625 C 271.238281 63.449219 271.457031 63.855469 271.632812 64.285156 C 271.8125 64.714844 271.945312 65.15625 272.035156 65.609375 C 272.125 66.066406 272.171875 66.527344 272.171875 66.992188 L 272.171875 85.855469 C 272.171875 86.320312 272.125 86.78125 272.035156 87.234375 C 271.945312 87.691406 271.8125 88.132812 271.632812 88.5625 C 271.457031 88.992188 271.238281 89.398438 270.980469 89.785156 C 270.722656 90.171875 270.429688 90.53125 270.097656 90.859375 C 269.769531 91.1875 269.414062 91.480469 269.027344 91.738281 C 268.640625 91.996094 268.234375 92.214844 267.804688 92.390625 C 267.375 92.570312 266.933594 92.703125 266.476562 92.792969 C 266.023438 92.882812 265.5625 92.929688 265.097656 92.929688 C 264.632812 92.929688 264.171875 92.882812 263.71875 92.792969 C 263.261719 92.703125 262.820312 92.570312 262.390625 92.390625 C 261.960938 92.214844 261.554688 91.996094 261.167969 91.738281 C 260.78125 91.480469 260.421875 91.1875 260.09375 90.859375 C 259.765625 90.53125 259.472656 90.171875 259.214844 89.785156 C 258.957031 89.398438 258.738281 88.992188 258.5625 88.5625 C 258.382812 88.132812 258.25 87.691406 258.160156 87.234375 C 258.066406 86.78125 258.023438 86.320312 258.023438 85.855469 Z M 184.921875 66.992188 C 184.921875 66.527344 184.96875 66.066406 185.058594 65.609375 C 185.148438 65.15625 185.285156 64.714844 185.460938 64.285156 C 185.640625 63.855469 185.855469 63.449219 186.113281 63.0625 C 186.375 62.675781 186.667969 62.316406 186.996094 61.988281 C 187.324219 61.660156 187.679688 61.367188 188.066406 61.109375 C 188.453125 60.851562 188.859375 60.632812 189.289062 60.457031 C 189.71875 60.277344 190.160156 60.144531 190.617188 60.054688 C 191.074219 59.960938 191.53125 59.917969 191.996094 59.917969 C 192.460938 59.917969 192.921875 59.960938 193.378906 60.054688 C 193.832031 60.144531 194.273438 60.277344 194.703125 60.457031 C 195.132812 60.632812 195.539062 60.851562 195.925781 61.109375 C 196.3125 61.367188 196.671875 61.660156 197 61.988281 C 197.328125 62.316406 197.621094 62.675781 197.878906 63.0625 C 198.136719 63.449219 198.355469 63.855469 198.53125 64.285156 C 198.710938 64.714844 198.84375 65.15625 198.933594 65.609375 C 199.027344 66.066406 199.070312 66.527344 199.070312 66.992188 L 199.070312 85.855469 C 199.070312 86.320312 199.027344 86.78125 198.933594 87.234375 C 198.84375 87.691406 198.710938 88.132812 198.53125 88.5625 C 198.355469 88.992188 198.136719 89.398438 197.878906 89.785156 C 197.621094 90.171875 197.328125 90.53125 197 90.859375 C 196.671875 91.1875 196.3125 91.480469 195.925781 91.738281 C 195.539062 91.996094 195.132812 92.214844 194.703125 92.390625 C 194.273438 92.570312 193.832031 92.703125 193.378906 92.792969 C 192.921875 92.882812 192.460938 92.929688 191.996094 92.929688 C 191.53125 92.929688 191.074219 92.882812 190.617188 92.792969 C 190.160156 92.703125 189.71875 92.570312 189.289062 92.390625 C 188.859375 92.214844 188.453125 91.996094 188.066406 91.738281 C 187.679688 91.480469 187.324219 91.1875 186.996094 90.859375 C 186.667969 90.53125 186.375 90.171875 186.113281 89.785156 C 185.855469 89.398438 185.640625 88.992188 185.460938 88.5625 C 185.285156 88.132812 185.148438 87.691406 185.058594 87.234375 C 184.96875 86.78125 184.921875 86.320312 184.921875 85.855469 Z M 111.824219 66.992188 C 111.824219 66.527344 111.867188 66.066406 111.957031 65.609375 C 112.050781 65.15625 112.183594 64.714844 112.359375 64.285156 C 112.539062 63.855469 112.757812 63.449219 113.015625 63.0625 C 113.273438 62.675781 113.566406 62.316406 113.894531 61.988281 C 114.222656 61.660156 114.582031 61.367188 114.964844 61.109375 C 115.351562 60.851562 115.761719 60.632812 116.191406 60.457031 C 116.617188 60.277344 117.0625 60.144531 117.515625 60.054688 C 117.972656 59.960938 118.433594 59.917969 118.898438 59.917969 C 119.359375 59.917969 119.820312 59.960938 120.277344 60.054688 C 120.734375 60.144531 121.175781 60.277344 121.605469 60.457031 C 122.03125 60.632812 122.441406 60.851562 122.828125 61.109375 C 123.214844 61.367188 123.570312 61.660156 123.898438 61.988281 C 124.226562 62.316406 124.519531 62.675781 124.777344 63.0625 C 125.035156 63.449219 125.253906 63.855469 125.433594 64.285156 C 125.609375 64.714844 125.746094 65.15625 125.835938 65.609375 C 125.925781 66.066406 125.972656 66.527344 125.972656 66.992188 L 125.972656 85.855469 C 125.972656 86.320312 125.925781 86.78125 125.835938 87.234375 C 125.746094 87.691406 125.609375 88.132812 125.433594 88.5625 C 125.253906 88.992188 125.035156 89.398438 124.777344 89.785156 C 124.519531 90.171875 124.226562 90.53125 123.898438 90.859375 C 123.570312 91.1875 123.214844 91.480469 122.828125 91.738281 C 122.441406 91.996094 122.03125 92.214844 121.605469 92.390625 C 121.175781 92.570312 120.734375 92.703125 120.277344 92.792969 C 119.820312 92.882812 119.359375 92.929688 118.898438 92.929688 C 118.433594 92.929688 117.972656 92.882812 117.515625 92.792969 C 117.0625 92.703125 116.617188 92.570312 116.191406 92.390625 C 115.761719 92.214844 115.351562 91.996094 114.964844 91.738281 C 114.582031 91.480469 114.222656 91.1875 113.894531 90.859375 C 113.566406 90.53125 113.273438 90.171875 113.015625 89.785156 C 112.757812 89.398438 112.539062 88.992188 112.359375 88.5625 C 112.183594 88.132812 112.050781 87.691406 111.957031 87.234375 C 111.867188 86.78125 111.824219 86.320312 111.824219 85.855469 Z M 267.457031 298.507812 L 267.457031 276.859375 C 267.457031 275.929688 267.550781 275.011719 267.734375 274.101562 C 267.917969 273.191406 268.1875 272.308594 268.542969 271.453125 C 268.898438 270.59375 269.335938 269.78125 269.851562 269.007812 C 270.367188 268.238281 270.953125 267.523438 271.613281 266.867188 C 272.269531 266.210938 272.980469 265.625 273.753906 265.109375 C 274.523438 264.59375 275.339844 264.15625 276.195312 263.800781 C 277.054688 263.441406 277.9375 263.171875 278.847656 262.988281 C 279.757812 262.808594 280.675781 262.714844 281.605469 262.710938 L 303.25 262.710938 Z M 309.902344 248.5625 C 309.902344 248.871094 309.871094 249.179688 309.808594 249.484375 C 309.75 249.785156 309.660156 250.082031 309.542969 250.367188 C 309.421875 250.652344 309.277344 250.925781 309.105469 251.183594 C 308.933594 251.441406 308.738281 251.679688 308.519531 251.898438 C 308.300781 252.117188 308.0625 252.3125 307.804688 252.484375 C 307.546875 252.65625 307.273438 252.800781 306.988281 252.921875 C 306.703125 253.039062 306.410156 253.128906 306.105469 253.1875 C 305.800781 253.25 305.496094 253.277344 305.183594 253.277344 L 281.605469 253.277344 C 280.832031 253.277344 280.0625 253.316406 279.292969 253.394531 C 278.523438 253.46875 277.761719 253.582031 277.003906 253.730469 C 276.246094 253.882812 275.496094 254.070312 274.757812 254.292969 C 274.019531 254.519531 273.292969 254.777344 272.578125 255.074219 C 271.867188 255.371094 271.167969 255.699219 270.488281 256.0625 C 269.808594 256.425781 269.144531 256.824219 268.503906 257.253906 C 267.859375 257.683594 267.242188 258.140625 266.644531 258.632812 C 266.046875 259.121094 265.476562 259.640625 264.929688 260.1875 C 264.382812 260.730469 263.867188 261.304688 263.375 261.898438 C 262.886719 262.496094 262.425781 263.117188 261.996094 263.757812 C 261.566406 264.402344 261.171875 265.0625 260.808594 265.742188 C 260.445312 266.425781 260.113281 267.121094 259.816406 267.835938 C 259.523438 268.550781 259.261719 269.277344 259.039062 270.015625 C 258.8125 270.753906 258.625 271.5 258.476562 272.257812 C 258.324219 273.015625 258.210938 273.78125 258.136719 274.546875 C 258.0625 275.316406 258.023438 276.085938 258.023438 276.859375 L 258.023438 300.441406 C 258.023438 300.75 257.992188 301.058594 257.933594 301.359375 C 257.871094 301.664062 257.78125 301.960938 257.664062 302.246094 C 257.546875 302.53125 257.398438 302.804688 257.226562 303.0625 C 257.054688 303.316406 256.859375 303.554688 256.640625 303.773438 C 256.421875 303.996094 256.183594 304.191406 255.925781 304.363281 C 255.667969 304.535156 255.398438 304.679688 255.113281 304.796875 C 254.824219 304.917969 254.53125 305.003906 254.226562 305.066406 C 253.921875 305.125 253.617188 305.15625 253.308594 305.15625 L 88.242188 304.875 C 87.3125 304.875 86.394531 304.78125 85.480469 304.601562 C 84.570312 304.421875 83.6875 304.152344 82.828125 303.796875 C 81.96875 303.441406 81.152344 303.003906 80.382812 302.488281 C 79.609375 301.972656 78.894531 301.386719 78.238281 300.730469 C 77.582031 300.074219 76.992188 299.359375 76.476562 298.585938 C 75.960938 297.8125 75.527344 296.996094 75.171875 296.140625 C 74.816406 295.28125 74.546875 294.398438 74.363281 293.484375 C 74.183594 292.574219 74.09375 291.652344 74.09375 290.726562 L 74.09375 135.375 L 309.902344 135.375 Z M 309.902344 248.5625 " fill-opacity="1" fill-rule="nonzero"/></g></svg>