<svg xmlns="http://www.w3.org/2000/svg" xmlns:xlink="http://www.w3.org/1999/xlink" width="400" zoomAndPan="magnify" viewBox="0 0 300 299.999988" height="400" preserveAspectRatio="xMidYMid meet" version="1.0"><defs><g/></defs><path fill="#f3d64c" d="M 149.636719 -0.339844 C 148.824219 -0.328125 148.015625 -0.277344 147.210938 -0.183594 C 146.402344 -0.09375 145.601562 0.0390625 144.808594 0.207031 C 144.015625 0.378906 143.234375 0.585938 142.460938 0.832031 C 141.6875 1.078125 140.925781 1.363281 140.183594 1.683594 C 139.4375 2.007812 138.710938 2.363281 138 2.757812 C 137.289062 3.148438 136.597656 3.574219 135.929688 4.035156 C 135.261719 4.496094 134.617188 4.988281 134 5.511719 C 133.378906 6.035156 132.785156 6.589844 132.21875 7.171875 C 131.65625 7.753906 131.117188 8.359375 130.613281 8.996094 C 130.105469 9.628906 129.632812 10.289062 129.191406 10.96875 C 128.75 11.648438 128.34375 12.351562 127.972656 13.074219 C 127.597656 13.792969 127.261719 14.53125 126.960938 15.285156 C 126.660156 16.039062 126.398438 16.804688 126.175781 17.585938 C 125.949219 18.367188 125.761719 19.15625 125.617188 19.953125 C 125.46875 20.75 125.359375 21.554688 125.292969 22.363281 C 125.222656 23.171875 125.195312 23.980469 125.207031 24.792969 L 125.207031 123.96875 L 26.03125 123.96875 C 25.214844 123.957031 24.394531 123.984375 23.578125 124.054688 C 22.761719 124.125 21.953125 124.234375 21.144531 124.382812 C 20.339844 124.53125 19.542969 124.722656 18.757812 124.949219 C 17.972656 125.179688 17.199219 125.445312 16.4375 125.753906 C 15.675781 126.058594 14.933594 126.402344 14.207031 126.78125 C 13.480469 127.160156 12.773438 127.574219 12.089844 128.023438 C 11.402344 128.472656 10.742188 128.953125 10.105469 129.46875 C 9.46875 129.984375 8.855469 130.527344 8.273438 131.105469 C 7.691406 131.679688 7.136719 132.28125 6.613281 132.910156 C 6.089844 133.542969 5.597656 134.195312 5.140625 134.875 C 4.679688 135.554688 4.257812 136.253906 3.867188 136.976562 C 3.476562 137.695312 3.125 138.433594 2.808594 139.191406 C 2.492188 139.945312 2.214844 140.714844 1.972656 141.5 C 1.734375 142.28125 1.53125 143.078125 1.371094 143.878906 C 1.210938 144.683594 1.089844 145.492188 1.007812 146.308594 C 0.925781 147.125 0.886719 147.941406 0.886719 148.761719 C 0.886719 149.578125 0.925781 150.398438 1.007812 151.210938 C 1.089844 152.027344 1.210938 152.835938 1.371094 153.640625 C 1.53125 154.445312 1.734375 155.238281 1.972656 156.019531 C 2.214844 156.804688 2.492188 157.574219 2.808594 158.332031 C 3.125 159.085938 3.476562 159.824219 3.867188 160.546875 C 4.257812 161.265625 4.679688 161.964844 5.140625 162.644531 C 5.597656 163.324219 6.089844 163.980469 6.613281 164.609375 C 7.136719 165.238281 7.691406 165.84375 8.273438 166.417969 C 8.855469 166.992188 9.46875 167.539062 10.105469 168.050781 C 10.742188 168.566406 11.402344 169.050781 12.089844 169.5 C 12.773438 169.949219 13.480469 170.363281 14.207031 170.742188 C 14.933594 171.121094 15.675781 171.460938 16.4375 171.769531 C 17.199219 172.074219 17.972656 172.339844 18.757812 172.570312 C 19.542969 172.796875 20.339844 172.988281 21.144531 173.136719 C 21.953125 173.289062 22.761719 173.398438 23.578125 173.46875 C 24.394531 173.535156 25.214844 173.566406 26.03125 173.554688 L 125.207031 173.554688 L 125.207031 272.726562 C 125.195312 273.546875 125.222656 274.363281 125.292969 275.179688 C 125.363281 275.996094 125.472656 276.808594 125.621094 277.613281 C 125.773438 278.417969 125.960938 279.214844 126.191406 280.003906 C 126.417969 280.789062 126.6875 281.5625 126.992188 282.324219 C 127.296875 283.082031 127.640625 283.828125 128.019531 284.554688 C 128.398438 285.28125 128.8125 285.984375 129.261719 286.671875 C 129.710938 287.355469 130.191406 288.015625 130.707031 288.65625 C 131.222656 289.292969 131.769531 289.902344 132.34375 290.488281 C 132.917969 291.070312 133.519531 291.625 134.152344 292.148438 C 134.78125 292.671875 135.4375 293.164062 136.113281 293.621094 C 136.792969 294.082031 137.492188 294.503906 138.214844 294.894531 C 138.9375 295.285156 139.675781 295.636719 140.429688 295.953125 C 141.1875 296.269531 141.957031 296.546875 142.738281 296.785156 C 143.523438 297.027344 144.316406 297.226562 145.121094 297.386719 C 145.921875 297.550781 146.730469 297.671875 147.546875 297.753906 C 148.363281 297.832031 149.179688 297.875 150 297.875 C 150.820312 297.875 151.636719 297.832031 152.453125 297.75 C 153.269531 297.671875 154.078125 297.550781 154.878906 297.386719 C 155.683594 297.226562 156.476562 297.027344 157.261719 296.785156 C 158.042969 296.546875 158.8125 296.269531 159.570312 295.953125 C 160.324219 295.636719 161.0625 295.285156 161.785156 294.894531 C 162.507812 294.503906 163.207031 294.082031 163.886719 293.621094 C 164.5625 293.164062 165.21875 292.671875 165.847656 292.148438 C 166.480469 291.625 167.082031 291.070312 167.65625 290.488281 C 168.230469 289.902344 168.777344 289.292969 169.292969 288.65625 C 169.808594 288.015625 170.289062 287.355469 170.738281 286.671875 C 171.1875 285.984375 171.601562 285.28125 171.980469 284.554688 C 172.359375 283.828125 172.703125 283.082031 173.007812 282.324219 C 173.3125 281.5625 173.582031 280.789062 173.808594 280.003906 C 174.039062 279.214844 174.226562 278.417969 174.378906 277.613281 C 174.527344 276.808594 174.636719 275.996094 174.707031 275.179688 C 174.777344 274.363281 174.804688 273.546875 174.792969 272.726562 L 174.792969 173.554688 L 273.96875 173.554688 C 274.785156 173.566406 275.605469 173.535156 276.421875 173.46875 C 277.238281 173.398438 278.046875 173.289062 278.855469 173.136719 C 279.660156 172.988281 280.457031 172.796875 281.242188 172.570312 C 282.027344 172.339844 282.800781 172.074219 283.5625 171.769531 C 284.324219 171.460938 285.066406 171.121094 285.792969 170.742188 C 286.519531 170.363281 287.226562 169.949219 287.910156 169.5 C 288.597656 169.050781 289.257812 168.566406 289.894531 168.050781 C 290.53125 167.539062 291.144531 166.992188 291.726562 166.417969 C 292.308594 165.839844 292.863281 165.238281 293.386719 164.609375 C 293.910156 163.980469 294.402344 163.324219 294.859375 162.644531 C 295.320312 161.964844 295.742188 161.265625 296.132812 160.546875 C 296.523438 159.824219 296.875 159.085938 297.191406 158.332031 C 297.507812 157.574219 297.785156 156.804688 298.027344 156.019531 C 298.265625 155.238281 298.46875 154.445312 298.628906 153.640625 C 298.789062 152.835938 298.910156 152.027344 298.992188 151.210938 C 299.074219 150.398438 299.113281 149.578125 299.113281 148.761719 C 299.113281 147.941406 299.074219 147.125 298.992188 146.308594 C 298.910156 145.492188 298.789062 144.683594 298.628906 143.878906 C 298.46875 143.078125 298.265625 142.28125 298.027344 141.5 C 297.785156 140.714844 297.507812 139.945312 297.191406 139.191406 C 296.875 138.433594 296.523438 137.695312 296.132812 136.976562 C 295.742188 136.253906 295.320312 135.554688 294.859375 134.875 C 294.402344 134.195312 293.910156 133.542969 293.386719 132.910156 C 292.863281 132.28125 292.308594 131.679688 291.726562 131.105469 C 291.144531 130.527344 290.53125 129.984375 289.894531 129.46875 C 289.257812 128.953125 288.597656 128.472656 287.910156 128.023438 C 287.226562 127.574219 286.519531 127.160156 285.792969 126.78125 C 285.066406 126.402344 284.324219 126.058594 283.5625 125.753906 C 282.800781 125.445312 282.027344 125.179688 281.242188 124.949219 C 280.457031 124.722656 279.660156 124.53125 278.855469 124.382812 C 278.046875 124.234375 277.238281 124.125 276.421875 124.054688 C 275.605469 123.984375 274.785156 123.957031 273.96875 123.96875 L 174.792969 123.96875 L 174.792969 24.792969 C 174.804688 23.964844 174.773438 23.140625 174.703125 22.316406 C 174.632812 21.496094 174.519531 20.675781 174.367188 19.863281 C 174.214844 19.050781 174.019531 18.25 173.789062 17.457031 C 173.554688 16.660156 173.28125 15.882812 172.96875 15.117188 C 172.660156 14.351562 172.308594 13.601562 171.925781 12.871094 C 171.539062 12.140625 171.117188 11.429688 170.660156 10.742188 C 170.203125 10.050781 169.710938 9.386719 169.1875 8.75 C 168.664062 8.109375 168.109375 7.496094 167.523438 6.914062 C 166.941406 6.328125 166.328125 5.773438 165.6875 5.25 C 165.046875 4.726562 164.382812 4.238281 163.691406 3.78125 C 163.003906 3.324219 162.292969 2.90625 161.5625 2.519531 C 160.832031 2.132812 160.082031 1.785156 159.316406 1.476562 C 158.550781 1.164062 157.769531 0.890625 156.976562 0.660156 C 156.183594 0.425781 155.378906 0.234375 154.566406 0.0820312 C 153.753906 -0.0703125 152.9375 -0.179688 152.113281 -0.25 C 151.289062 -0.320312 150.464844 -0.351562 149.636719 -0.339844 Z M 149.636719 -0.339844 " fill-opacity="1" fill-rule="nonzero"/><g fill="#000000" fill-opacity="1"><g transform="translate(89.188095, 190.509008)"><g/></g></g><g fill="#000000" fill-opacity="1"><g transform="translate(96.733127, 190.509008)"><g/></g></g><g fill="#000000" fill-opacity="1"><g transform="translate(104.278159, 190.509008)"><g/></g></g><g fill="#000000" fill-opacity="1"><g transform="translate(111.823191, 190.509008)"><g/></g></g><g fill="#000000" fill-opacity="1"><g transform="translate(119.368223, 190.509008)"><g/></g></g><g fill="#000000" fill-opacity="1"><g transform="translate(126.913254, 190.509008)"><g/></g></g><g fill="#000000" fill-opacity="1"><g transform="translate(134.458286, 190.509008)"><g/></g></g><g fill="#000000" fill-opacity="1"><g transform="translate(142.003318, 190.509008)"><g/></g></g><g fill="#000000" fill-opacity="1"><g transform="translate(149.54835, 190.509008)"><g/></g></g><g fill="#000000" fill-opacity="1"><g transform="translate(157.093382, 190.509008)"><g/></g></g><g fill="#000000" fill-opacity="1"><g transform="translate(164.638414, 190.509008)"><g/></g></g><g fill="#000000" fill-opacity="1"><g transform="translate(172.183446, 190.509008)"><g/></g></g><g fill="#000000" fill-opacity="1"><g transform="translate(179.728477, 190.509008)"><g/></g></g><g fill="#000000" fill-opacity="1"><g transform="translate(187.273509, 190.509008)"><g/></g></g><g fill="#000000" fill-opacity="1"><g transform="translate(194.818541, 190.509008)"><g/></g></g><g fill="#000000" fill-opacity="1"><g transform="translate(202.363573, 190.509008)"><g/></g></g><g fill="#000000" fill-opacity="1"><g transform="translate(209.908605, 190.509008)"><g/></g></g><g fill="#000000" fill-opacity="1"><g transform="translate(217.453637, 190.509008)"><g/></g></g><g fill="#000000" fill-opacity="1"><g transform="translate(232.5437, 190.509008)"><g/></g></g><g fill="#000000" fill-opacity="1"><g transform="translate(240.088732, 190.509008)"><g/></g></g><g fill="#000000" fill-opacity="1"><g transform="translate(247.633764, 190.509008)"><g/></g></g><g fill="#000000" fill-opacity="1"><g transform="translate(255.178796, 190.509008)"><g/></g></g><g fill="#000000" fill-opacity="1"><g transform="translate(262.723828, 190.509008)"><g/></g></g><g fill="#000000" fill-opacity="1"><g transform="translate(270.26886, 190.509008)"><g/></g></g><g fill="#000000" fill-opacity="1"><g transform="translate(277.813892, 190.509008)"><g/></g></g><g fill="#000000" fill-opacity="1"><g transform="translate(285.358923, 190.509008)"><g/></g></g><g fill="#000000" fill-opacity="1"><g transform="translate(292.903944, 190.509008)"><g/></g></g></svg>