<svg xmlns="http://www.w3.org/2000/svg" xmlns:xlink="http://www.w3.org/1999/xlink" width="400" zoomAndPan="magnify" viewBox="0 0 300 299.999988" height="400" preserveAspectRatio="xMidYMid meet" version="1.0"><defs><g/></defs><g fill="#000000" fill-opacity="1"><g transform="translate(89.188095, 190.509008)"><g/></g></g><g fill="#000000" fill-opacity="1"><g transform="translate(96.733127, 190.509008)"><g/></g></g><g fill="#000000" fill-opacity="1"><g transform="translate(104.278159, 190.509008)"><g/></g></g><g fill="#000000" fill-opacity="1"><g transform="translate(111.823191, 190.509008)"><g/></g></g><g fill="#000000" fill-opacity="1"><g transform="translate(119.368223, 190.509008)"><g/></g></g><g fill="#000000" fill-opacity="1"><g transform="translate(126.913254, 190.509008)"><g/></g></g><g fill="#000000" fill-opacity="1"><g transform="translate(134.458286, 190.509008)"><g/></g></g><g fill="#000000" fill-opacity="1"><g transform="translate(142.003318, 190.509008)"><g/></g></g><g fill="#000000" fill-opacity="1"><g transform="translate(149.54835, 190.509008)"><g/></g></g><g fill="#000000" fill-opacity="1"><g transform="translate(157.093382, 190.509008)"><g/></g></g><g fill="#000000" fill-opacity="1"><g transform="translate(164.638414, 190.509008)"><g/></g></g><g fill="#000000" fill-opacity="1"><g transform="translate(172.183446, 190.509008)"><g/></g></g><g fill="#000000" fill-opacity="1"><g transform="translate(179.728477, 190.509008)"><g/></g></g><g fill="#000000" fill-opacity="1"><g transform="translate(187.273509, 190.509008)"><g/></g></g><g fill="#000000" fill-opacity="1"><g transform="translate(194.818541, 190.509008)"><g/></g></g><g fill="#000000" fill-opacity="1"><g transform="translate(202.363573, 190.509008)"><g/></g></g><g fill="#000000" fill-opacity="1"><g transform="translate(209.908605, 190.509008)"><g/></g></g><g fill="#000000" fill-opacity="1"><g transform="translate(217.453637, 190.509008)"><g/></g></g><g fill="#000000" fill-opacity="1"><g transform="translate(232.5437, 190.509008)"><g/></g></g><g fill="#000000" fill-opacity="1"><g transform="translate(240.088732, 190.509008)"><g/></g></g><g fill="#000000" fill-opacity="1"><g transform="translate(247.633764, 190.509008)"><g/></g></g><g fill="#000000" fill-opacity="1"><g transform="translate(255.178796, 190.509008)"><g/></g></g><g fill="#000000" fill-opacity="1"><g transform="translate(262.723828, 190.509008)"><g/></g></g><g fill="#000000" fill-opacity="1"><g transform="translate(270.26886, 190.509008)"><g/></g></g><g fill="#000000" fill-opacity="1"><g transform="translate(277.813892, 190.509008)"><g/></g></g><g fill="#000000" fill-opacity="1"><g transform="translate(285.358923, 190.509008)"><g/></g></g><g fill="#000000" fill-opacity="1"><g transform="translate(292.903944, 190.509008)"><g/></g></g><path fill="#2235a2" d="M 70 28 L 150 108 L 230 28 C 258 0 300 42 272 70 L 192 150 L 272 230 C 300 258 258 300 230 272 L 150 192 L 70 272 C 42 300 0 258 28 230 L 108 150 L 28 70 C 0 42 42 0 70 28 Z M 70 28 " fill-opacity="1" fill-rule="evenodd"/></svg>