<svg xmlns="http://www.w3.org/2000/svg" xmlns:xlink="http://www.w3.org/1999/xlink" width="512" zoomAndPan="magnify" viewBox="0 0 384 383.999986" height="512" preserveAspectRatio="xMidYMid meet" version="1.0"><defs><clipPath id="276b9d97df"><path d="M 170.535156 276 L 213.742188 276 L 213.742188 293.851562 L 170.535156 293.851562 Z M 170.535156 276 " clip-rule="nonzero"/></clipPath><clipPath id="3193e63f8e"><path d="M 172 89.851562 L 213 89.851562 L 213 111 L 172 111 Z M 172 89.851562 " clip-rule="nonzero"/></clipPath><clipPath id="dc0635ad6b"><path d="M 66.277344 133 L 96 133 L 96 232 L 66.277344 232 Z M 66.277344 133 " clip-rule="nonzero"/></clipPath><clipPath id="f6da67550a"><path d="M 291.230469 134.515625 L 317.527344 134.515625 L 317.527344 226 L 291.230469 226 Z M 291.230469 134.515625 " clip-rule="nonzero"/></clipPath></defs><g clip-path="url(#276b9d97df)"><path fill="#ffffff" d="M 205.90625 276.082031 L 170.929688 276.082031 C 172.652344 286.285156 181.546875 294.078125 192.230469 294.078125 C 202.914062 294.078125 211.808594 286.285156 213.53125 276.082031 L 205.90625 276.082031 " fill-opacity="1" fill-rule="nonzero"/></g><g clip-path="url(#3193e63f8e)"><path fill="#ffffff" d="M 179.691406 108.742188 C 183.753906 107.90625 187.945312 107.464844 192.230469 107.464844 C 196.515625 107.464844 200.707031 107.90625 204.765625 108.742188 C 206.074219 109.011719 207.367188 109.316406 208.644531 109.664062 C 209.921875 110.015625 211.1875 110.410156 212.4375 110.839844 C 212.207031 99.25 203.234375 89.902344 192.230469 89.902344 C 181.226562 89.902344 172.253906 99.25 172.023438 110.839844 C 173.273438 110.410156 174.535156 110.015625 175.816406 109.664062 C 177.09375 109.316406 178.386719 109.011719 179.691406 108.742188 " fill-opacity="1" fill-rule="nonzero"/></g><path fill="#ffffff" d="M 267.269531 247.914062 C 262.324219 243.25 257.214844 238.425781 253.105469 231.785156 C 246.441406 221.023438 250.5625 181.375 250.683594 180.253906 L 250.636719 179.949219 L 250.648438 179.621094 C 250.671875 178.894531 250.683594 178.222656 250.683594 177.566406 C 250.683594 150.480469 234.558594 127.359375 212.058594 118.636719 C 210.84375 118.167969 209.609375 117.738281 208.359375 117.355469 C 207.136719 116.976562 205.898438 116.644531 204.640625 116.351562 C 200.640625 115.421875 196.488281 114.925781 192.230469 114.925781 C 187.972656 114.925781 183.820312 115.421875 179.816406 116.351562 C 178.5625 116.644531 177.324219 116.976562 176.097656 117.355469 C 174.851562 117.738281 173.617188 118.167969 172.40625 118.636719 C 149.902344 127.359375 133.777344 150.480469 133.777344 177.566406 C 133.777344 178.222656 133.789062 178.894531 133.8125 179.621094 L 133.820312 179.949219 L 133.777344 180.253906 C 133.902344 181.4375 138.011719 221.03125 131.355469 231.785156 C 127.246094 238.425781 122.132812 243.25 117.191406 247.914062 C 114.734375 250.234375 111.914062 254.832031 110.003906 259.625 C 108.125 264.355469 107.847656 267.398438 108.015625 268.621094 L 276.832031 268.621094 C 277.046875 267.539062 276.796875 264.5 274.726562 259.621094 C 272.726562 254.898438 269.796875 250.304688 267.269531 247.914062 " fill-opacity="1" fill-rule="nonzero"/><path fill="#ffffff" d="M 111.851562 213.675781 C 114.617188 211.703125 115.265625 207.859375 113.292969 205.089844 C 108.273438 198.050781 105.621094 189.738281 105.621094 181.058594 C 105.621094 172.777344 108.054688 164.789062 112.648438 157.949219 C 114.546875 155.128906 113.796875 151.304688 110.976562 149.40625 C 108.152344 147.511719 104.328125 148.257812 102.429688 151.082031 C 96.464844 159.957031 93.308594 170.324219 93.308594 181.058594 C 93.308594 192.3125 96.75 203.09375 103.261719 212.234375 C 104.464844 213.921875 106.359375 214.820312 108.28125 214.820312 C 109.519531 214.820312 110.765625 214.449219 111.851562 213.675781 " fill-opacity="1" fill-rule="nonzero"/><g clip-path="url(#dc0635ad6b)"><path fill="#ffffff" d="M 81.203125 181.058594 C 81.203125 168.292969 84.855469 155.914062 91.761719 145.257812 C 94.003906 141.800781 93.019531 137.179688 89.558594 134.9375 C 86.101562 132.695312 81.480469 133.679688 79.238281 137.140625 C 70.761719 150.21875 66.277344 165.40625 66.277344 181.058594 C 66.277344 198.285156 71.621094 214.726562 81.734375 228.609375 C 83.195312 230.613281 85.46875 231.679688 87.773438 231.679688 C 89.296875 231.679688 90.835938 231.210938 92.160156 230.246094 C 95.492188 227.820312 96.222656 223.152344 93.796875 219.824219 C 85.558594 208.507812 81.203125 195.105469 81.203125 181.058594 " fill-opacity="1" fill-rule="nonzero"/></g><path fill="#ffffff" d="M 272.578125 148.84375 C 269.78125 150.785156 269.089844 154.621094 271.027344 157.414062 C 275.847656 164.359375 278.394531 172.523438 278.394531 181.019531 C 278.394531 189.269531 275.980469 197.238281 271.414062 204.0625 C 269.519531 206.886719 270.277344 210.707031 273.101562 212.601562 C 274.152344 213.304688 275.34375 213.640625 276.523438 213.640625 C 278.507812 213.640625 280.457031 212.683594 281.644531 210.910156 C 287.574219 202.054688 290.707031 191.71875 290.707031 181.019531 C 290.707031 170.003906 287.402344 159.414062 281.144531 150.394531 C 279.207031 147.601562 275.371094 146.90625 272.578125 148.84375 " fill-opacity="1" fill-rule="nonzero"/><g clip-path="url(#f6da67550a)"><path fill="#ffffff" d="M 305.484375 138.207031 C 303.300781 134.714844 298.695312 133.652344 295.199219 135.839844 C 291.707031 138.023438 290.644531 142.628906 292.832031 146.125 C 299.363281 156.566406 302.8125 168.632812 302.8125 181.019531 C 302.8125 192.796875 299.671875 204.351562 293.734375 214.433594 C 291.640625 217.984375 292.820312 222.558594 296.371094 224.652344 C 297.5625 225.351562 298.867188 225.683594 300.15625 225.683594 C 302.710938 225.683594 305.199219 224.371094 306.589844 222.011719 C 313.886719 209.636719 317.738281 195.460938 317.738281 181.019531 C 317.738281 165.832031 313.5 151.027344 305.484375 138.207031 " fill-opacity="1" fill-rule="nonzero"/></g></svg>