<svg xmlns="http://www.w3.org/2000/svg" xmlns:xlink="http://www.w3.org/1999/xlink" width="512" zoomAndPan="magnify" viewBox="0 0 384 383.999986" height="512" preserveAspectRatio="xMidYMid meet" version="1.0"><defs><clipPath id="491a2ea638"><path d="M 55.605469 39 L 326 39 L 326 339.898438 L 55.605469 339.898438 Z M 55.605469 39 " clip-rule="nonzero"/></clipPath></defs><g clip-path="url(#491a2ea638)"><path fill="#f5f4e6" d="M 236.847656 162.835938 C 187.832031 162.835938 147.964844 202.71875 147.964844 251.71875 C 147.964844 300.722656 187.832031 340.601562 236.847656 340.601562 C 285.867188 340.601562 325.734375 300.722656 325.734375 251.71875 C 325.734375 202.71875 285.867188 162.835938 236.847656 162.835938 Z M 267.070312 263.3125 L 236.847656 263.3125 C 230.449219 263.3125 225.257812 258.117188 225.257812 251.71875 L 225.257812 220.261719 C 225.257812 213.863281 230.449219 208.667969 236.847656 208.667969 C 243.25 208.667969 248.441406 213.863281 248.441406 220.261719 L 248.441406 240.125 L 267.070312 240.125 C 273.46875 240.125 278.664062 245.320312 278.664062 251.71875 C 278.664062 258.117188 273.46875 263.3125 267.070312 263.3125 Z M 252.308594 39.171875 L 97.726562 39.171875 C 74.230469 39.171875 55.21875 58.1875 55.21875 81.683594 L 55.21875 282.636719 C 55.21875 306.132812 74.230469 325.144531 97.726562 325.144531 L 152.449219 325.144531 C 135.136719 305.511719 124.78125 279.851562 124.78125 251.71875 C 124.78125 189.886719 175.019531 139.648438 236.847656 139.648438 C 258.179688 139.648438 277.96875 145.523438 294.816406 156.035156 L 294.816406 81.683594 C 294.816406 58.1875 275.804688 39.171875 252.308594 39.171875 Z M 128.644531 201.480469 L 113.1875 201.480469 C 106.847656 201.480469 101.59375 196.226562 101.59375 189.886719 C 101.59375 183.550781 106.847656 178.292969 113.1875 178.292969 L 128.644531 178.292969 C 134.980469 178.292969 140.238281 183.550781 140.238281 189.886719 C 140.238281 196.226562 134.980469 201.480469 128.644531 201.480469 Z M 175.019531 155.105469 L 113.1875 155.105469 C 106.847656 155.105469 101.59375 149.851562 101.59375 143.515625 C 101.59375 137.175781 106.847656 131.921875 113.1875 131.921875 L 175.019531 131.921875 C 181.355469 131.921875 186.609375 137.175781 186.609375 143.515625 C 186.609375 149.851562 181.355469 155.105469 175.019531 155.105469 Z M 236.847656 108.734375 L 113.1875 108.734375 C 106.847656 108.734375 101.59375 103.476562 101.59375 97.140625 C 101.59375 90.800781 106.847656 85.546875 113.1875 85.546875 L 236.847656 85.546875 C 243.1875 85.546875 248.441406 90.800781 248.441406 97.140625 C 248.441406 103.476562 243.1875 108.734375 236.847656 108.734375 Z M 236.847656 108.734375 " fill-opacity="1" fill-rule="nonzero"/></g></svg>